<svg width="72" height="72" viewBox="0 0 72 72" fill="none" xmlns="http://www.w3.org/2000/svg">
<g clip-path="url(#clip0_1440_49582)">
<path fill-rule="evenodd" clip-rule="evenodd" d="M14.2599 16.3472C18.391 10.7637 24.322 7.58068 31.0467 5.83189C39.286 3.68924 48.1047 1.15265 55.3263 5.66773C64.2922 11.2734 72.9231 20.6476 71.4871 31.116C70.0861 41.3291 57.448 44.0958 49.2056 50.287C39.8624 57.3051 32.715 71.8056 21.4394 68.7091C10.1222 65.6013 8.36945 50.2572 6.77593 38.6352C5.65556 30.4641 9.35585 22.9753 14.2599 16.3472Z" fill="#D0EECC"/>
<g clip-path="url(#clip1_1440_49582)">
<g clip-path="url(#clip2_1440_49582)">
<g clip-path="url(#clip3_1440_49582)">
<path d="M14 47.4286H52V25.7143C52 24.2153 50.7847 23 49.2857 23H16.7143C15.2153 23 14 24.2153 14 25.7143V47.4286Z" fill="#353744"/>
</g>
<g clip-path="url(#clip4_1440_49582)">
<path d="M14 47.4285H52V48.7856C52 50.2846 50.7847 51.4999 49.2857 51.4999H16.7143C15.2153 51.4999 14 50.2846 14 48.7856V47.4285Z" fill="#808080"/>
</g>
<g clip-path="url(#clip5_1440_49582)">
<path d="M16.7143 47.4286H52V25.7143C52 24.2153 50.7847 23 49.2857 23H19.4286C17.9296 23 16.7143 24.2153 16.7143 25.7143V47.4286Z" fill="#55525B"/>
</g>
<g clip-path="url(#clip6_1440_49582)">
<path d="M16.7143 47.4285H52V48.7856C52 50.2846 50.7847 51.4999 49.2857 51.4999H19.4286C17.9296 51.4999 16.7143 50.2846 16.7143 48.7856V47.4285Z" fill="#DBDEE3"/>
</g>
<g clip-path="url(#clip7_1440_49582)">
<path d="M20.4465 25.7144H48.2679C48.8298 25.7144 49.2858 26.1704 49.2858 26.7322V43.6965C49.2858 44.2584 48.8298 44.7144 48.2679 44.7144H20.4465C19.8846 44.7144 19.4286 44.2584 19.4286 43.6965V26.7322C19.4286 26.1704 19.8846 25.7144 20.4465 25.7144Z" fill="#FBBE18"/>
<path d="M33 38.54L38.75 35.27L33 32V38.54Z" fill="#5C76B2" stroke="#80A0C1" stroke-width="1.5" stroke-linecap="round" stroke-linejoin="round"/>
</g>
<path d="M22.4999 20.1787C19.9075 20.1787 17.8059 18.0803 17.8059 15.4918C17.8059 12.9033 19.9075 10.8049 22.4999 10.8049C25.0923 10.8049 27.1938 12.9033 27.1938 15.4918C27.1938 18.0803 25.0923 20.1787 22.4999 20.1787Z" fill="white" fill-opacity="0.2"/>
<path d="M22.4988 20.9836C22.603 20.9838 22.7064 20.9634 22.8027 20.9237C22.8991 20.8839 22.9866 20.8256 23.0603 20.7521C23.1341 20.6786 23.1927 20.5912 23.2326 20.4951C23.2725 20.3989 23.293 20.2958 23.293 20.1918V10.7918C23.293 10.6878 23.2725 10.5847 23.2326 10.4885C23.1927 10.3924 23.1341 10.305 23.0603 10.2315C22.9866 10.158 22.8991 10.0997 22.8027 10.0599C22.7064 10.0202 22.603 9.99984 22.4988 10C22.2885 10 22.0867 10.0834 21.938 10.2319C21.7893 10.3804 21.7058 10.5818 21.7058 10.7918V20.1918C21.7058 20.4018 21.7893 20.6032 21.938 20.7517C22.0867 20.9002 22.2885 20.9836 22.4988 20.9836Z" fill="white" fill-opacity="0.3"/>
<path d="M16.9999 15.4918C16.9998 15.5959 17.0203 15.699 17.06 15.7952C17.0998 15.8914 17.1581 15.9788 17.2317 16.0525C17.3054 16.1261 17.3929 16.1846 17.4892 16.2244C17.5855 16.2643 17.6887 16.2848 17.793 16.2848H27.207C27.3112 16.2848 27.4145 16.2643 27.5107 16.2244C27.607 16.1846 27.6946 16.1261 27.7682 16.0525C27.8419 15.9788 27.9003 15.8914 27.9401 15.7952C27.9798 15.699 28.0002 15.5959 28 15.4918C28 15.2818 27.9165 15.0804 27.7678 14.9319C27.6191 14.7834 27.4173 14.7 27.207 14.7H17.793C17.5826 14.7 17.3809 14.7834 17.2322 14.9319C17.0834 15.0804 16.9999 15.2818 16.9999 15.4918Z" fill="white" fill-opacity="0.3"/>
<path d="M19.1699 15.4918C19.1699 15.7019 19.2534 15.9034 19.4021 16.0521C19.5508 16.2008 19.7525 16.2845 19.9629 16.2848H25.0349C25.2456 16.2848 25.4475 16.2013 25.5965 16.0525C25.7454 15.9038 25.8291 15.7021 25.8291 15.4918C25.8288 15.2817 25.7449 15.0803 25.596 14.9318C25.4471 14.7833 25.2454 14.7 25.0349 14.7H19.9629C19.7526 14.7 19.5508 14.7834 19.4021 14.9319C19.2534 15.0804 19.1699 15.2818 19.1699 15.4918Z" fill="white"/>
<path d="M22.4988 18.817C22.6031 18.8172 22.7066 18.7968 22.803 18.757C22.8994 18.7172 22.987 18.6588 23.0608 18.5851C23.1345 18.5114 23.193 18.4239 23.2329 18.3276C23.2727 18.2314 23.2931 18.1282 23.293 18.024V12.9607C23.293 12.7504 23.2094 12.5487 23.0605 12.4C22.9115 12.2513 22.7094 12.1677 22.4988 12.1677C22.2884 12.168 22.0867 12.2517 21.938 12.4004C21.7893 12.5491 21.7058 12.7506 21.7058 12.9607V18.0264C21.7061 18.2362 21.7897 18.4373 21.9384 18.5855C22.0871 18.7337 22.2887 18.817 22.4988 18.817Z" fill="white"/>
<path d="M33.4999 59.4774C31.8502 59.4774 30.5128 58.142 30.5128 56.4948C30.5128 54.8476 31.8502 53.5122 33.4999 53.5122C35.1496 53.5122 36.4869 54.8476 36.4869 56.4948C36.4869 58.142 35.1496 59.4774 33.4999 59.4774Z" fill="white" fill-opacity="0.2"/>
<path d="M33.4993 59.9896C33.5656 59.9897 33.6313 59.9767 33.6927 59.9514C33.754 59.9262 33.8096 59.8891 33.8566 59.8423C33.9035 59.7955 33.9408 59.7399 33.9662 59.6787C33.9916 59.6175 34.0046 59.5519 34.0046 59.4857V53.5039C34.0046 53.4377 33.9916 53.3721 33.9662 53.3109C33.9408 53.2497 33.9035 53.1941 33.8566 53.1473C33.8096 53.1005 33.754 53.0634 33.6927 53.0381C33.6313 53.0129 33.5656 52.9999 33.4993 53C33.3654 53 33.237 53.0531 33.1424 53.1476C33.0477 53.2421 32.9946 53.3703 32.9946 53.5039V59.4857C32.9946 59.6193 33.0477 59.7475 33.1424 59.842C33.237 59.9365 33.3654 59.9896 33.4993 59.9896Z" fill="white" fill-opacity="0.3"/>
<path d="M29.9999 56.4949C29.9998 56.5611 30.0129 56.6267 30.0382 56.6879C30.0635 56.7492 30.1006 56.8048 30.1474 56.8517C30.1943 56.8985 30.25 56.9357 30.3113 56.9611C30.3726 56.9865 30.4383 56.9995 30.5046 56.9995H36.4954C36.5617 56.9995 36.6274 56.9865 36.6887 56.9611C36.7499 56.9357 36.8056 56.8985 36.8525 56.8517C36.8994 56.8048 36.9365 56.7492 36.9619 56.6879C36.9872 56.6267 37.0001 56.5611 37 56.4949C37 56.3612 36.9469 56.2331 36.8522 56.1386C36.7576 56.0441 36.6292 55.991 36.4954 55.991H30.5046C30.3708 55.991 30.2424 56.0441 30.1477 56.1386C30.0531 56.2331 29.9999 56.3612 29.9999 56.4949Z" fill="white" fill-opacity="0.3"/>
<path d="M31.3808 56.4949C31.3808 56.6286 31.434 56.7568 31.5286 56.8514C31.6232 56.9461 31.7516 56.9993 31.8855 56.9995H35.1131C35.2472 56.9995 35.3757 56.9463 35.4705 56.8517C35.5653 56.7571 35.6185 56.6287 35.6185 56.4949C35.6183 56.3612 35.565 56.233 35.4702 56.1385C35.3754 56.044 35.2471 55.991 35.1131 55.991H31.8855C31.7516 55.991 31.6233 56.0441 31.5286 56.1386C31.434 56.2331 31.3808 56.3612 31.3808 56.4949Z" fill="white"/>
<path d="M33.4993 58.6108C33.5657 58.6109 33.6315 58.5979 33.6928 58.5726C33.7542 58.5472 33.8099 58.5101 33.8569 58.4632C33.9038 58.4163 33.941 58.3606 33.9664 58.2994C33.9918 58.2381 34.0047 58.1724 34.0046 58.1061V54.884C34.0046 54.7502 33.9515 54.6218 33.8567 54.5272C33.7619 54.4326 33.6333 54.3794 33.4993 54.3794C33.3653 54.3796 33.237 54.4328 33.1424 54.5275C33.0478 54.6221 32.9946 54.7503 32.9946 54.884V58.1076C32.9948 58.2411 33.048 58.3691 33.1427 58.4634C33.2373 58.5578 33.3655 58.6108 33.4993 58.6108Z" fill="white"/>
<path d="M47 16C47 15.6044 46.912 15.2176 46.7471 14.8887C46.5822 14.5597 46.3478 14.3034 46.0737 14.1521C45.7995 14.0007 45.4978 13.9612 45.2068 14.0386C44.9158 14.1159 44.6486 14.3066 44.4389 14.5865C44.2291 14.8663 44.0864 15.2229 44.0286 15.611C43.9709 15.9991 44.0009 16.4012 44.1146 16.7667C44.2283 17.1321 44.4208 17.4443 44.6677 17.6639C44.9145 17.8834 45.2048 18.0004 45.5015 18C45.8991 17.9995 46.2801 17.7886 46.5611 17.4135C46.8421 17.0385 47 16.5301 47 16Z" fill="#FFEDB2"/>
<path d="M20 57C20 56.6044 19.912 56.2176 19.7471 55.8887C19.5822 55.5597 19.3478 55.3034 19.0737 55.1521C18.7995 55.0007 18.4978 54.9612 18.2068 55.0386C17.9158 55.1159 17.6486 55.3066 17.4389 55.5865C17.2291 55.8663 17.0864 56.2229 17.0286 56.611C16.9709 56.9991 17.0009 57.4012 17.1146 57.7667C17.2283 58.1321 17.4208 58.4443 17.6677 58.6639C17.9145 58.8834 18.2048 59.0004 18.5015 59C18.8991 58.9995 19.2801 58.7886 19.5611 58.4135C19.8421 58.0385 20 57.5301 20 57Z" fill="#FFEDB2"/>
</g>
<path d="M60.6807 53.3902C60.7311 50.1615 60.7239 38.6217 58.989 35.8969C58.4922 35.1158 57.8659 34.4247 57.236 33.7444C56.4226 32.8662 55.5875 31.9951 54.6048 31.3076C54.0397 30.9117 53.2478 30.5877 52.7007 31.0052C52.1356 31.4336 52.2616 32.2938 52.3804 32.9921C52.6863 34.8027 50.6634 38.6073 50.3107 38.5461C49.4288 38.3877 53.6294 40.6806 54.0217 41.3681C54.4716 42.1527 53.9929 52.5408 54.2665 52.8035C54.3961 52.9187 59.0286 54.1497 60.6807 53.3902Z" fill="#FDC79C"/>
<path opacity="0.65" d="M55.6379 37.0777C55.6163 37.0777 55.5983 37.0741 55.5803 37.0597C54.6049 36.4658 53.849 35.5012 53.4998 34.4142C53.4819 34.3566 53.5142 34.2918 53.5718 34.2738C53.633 34.2558 53.6942 34.2882 53.7122 34.3458C54.0434 35.3824 54.7669 36.3003 55.6955 36.869C55.7495 36.9014 55.7639 36.9698 55.7315 37.0238C55.7135 37.0597 55.6775 37.0777 55.6379 37.0777Z" fill="black"/>
<path d="M59.5973 20.7722L53.6078 19.0877L55.2743 13.163C55.7171 11.5864 57.3548 10.6685 58.9278 11.1113L59.2121 11.1905C60.7887 11.6332 61.7066 13.2709 61.2638 14.8439L59.5973 20.7722Z" fill="#C4C4C4"/>
<path d="M60.2883 17.6947L54.6192 16.1037C54.4032 16.0425 54.2773 15.8194 54.3385 15.6034L54.3493 15.5638C54.4104 15.3478 54.6336 15.2218 54.8496 15.283L60.5187 16.8776C60.7347 16.9388 60.8607 17.1619 60.7995 17.3779L60.7887 17.4175C60.7275 17.6299 60.5043 17.7559 60.2883 17.6947Z" fill="#B0ABAB"/>
<path d="M58.7695 21.9744L53.687 20.549L53.6042 19.0876L59.5973 20.7722L58.7695 21.9744Z" fill="#B0ABAB"/>
<path d="M51.0594 42.5921L49.5261 42.1602C48.9466 41.9982 48.5974 41.4043 48.7414 40.8176L53.6978 20.5491L58.7587 21.9709L52.4308 41.8506C52.2436 42.4301 51.6389 42.7541 51.0594 42.5921Z" fill="#696969"/>
<path d="M53.4889 31.1206L53.4241 31.1026C53.075 31.0054 52.8698 30.6382 52.967 30.2891L53.5897 28.0718C53.6869 27.7227 54.054 27.5175 54.4032 27.6147L54.468 27.6327C54.8171 27.7299 55.0223 28.097 54.9251 28.4462L54.3024 30.6634C54.2052 31.0126 53.8417 31.2178 53.4889 31.1206Z" fill="#B0ABAB"/>
<path d="M50.2783 44.1291L49.3893 43.8807L49.7348 42.0198L50.9514 42.3617L50.2783 44.1291Z" fill="#696969"/>
<path d="M59.752 38.0315C59.5685 35.4651 58.9818 32.9779 57.6752 30.7606C57.1928 29.9364 56.6385 29.1553 56.2174 28.2986C55.7999 27.4419 55.6127 27.0244 55.4435 26.0885C55.3823 25.7574 55.1052 25.1059 54.9504 24.7819C54.7956 24.458 54.6912 23.9217 54.3313 23.9361C53.8525 23.9577 53.5466 24.4508 53.4098 24.9115C53.1363 25.8438 53.2154 26.8408 53.345 27.8055C53.4962 28.9393 53.7122 30.0695 54.1477 31.1278C54.5832 32.1824 55.2527 33.1651 56.1814 33.831C56.6097 34.1405 57.0885 34.3745 57.5096 34.6912C58.1755 35.188 58.6938 35.8827 58.9854 36.6601C59.1941 37.2037 59.1293 37.812 59.752 38.0315Z" fill="#FDC79C"/>
<path d="M52.4199 66.9855C51.8224 62.371 53.345 57.7169 53.0066 53.0844C52.8915 51.4934 52.5603 49.8773 52.9922 48.3259C53.0354 48.1747 53.0858 48.02 53.0858 47.8616C53.0858 47.678 53.021 47.5016 52.9634 47.3253C52.7979 46.8213 52.7115 46.303 52.7007 45.7811C52.6899 45.3456 52.8627 44.7877 53.3702 44.7445C53.6617 44.7193 53.9173 44.8884 54.1657 45.0216C55.1771 45.5651 56.4369 45.5867 57.6247 45.6587C58.7694 45.7307 59.9104 45.8675 61.0334 46.0691C61.2638 46.1123 61.5049 46.159 61.6921 46.2814C62.0341 46.5082 62.1097 46.9221 62.1061 47.2929C62.0989 47.9624 61.9153 48.6283 61.6417 49.2222C62.6028 50.7807 62.1349 52.6669 62.0521 54.4306C62.0017 55.4924 62.0989 56.5507 62.196 57.6089C62.3904 59.7146 62.5848 61.8239 62.9303 63.9151C63.0959 64.9194 63.2939 65.9776 63.1355 66.9855H52.4199Z" fill="#F68820"/>
<path d="M51.7109 31.5527C52.222 31.3907 52.4488 30.7536 52.3336 30.2281C52.2184 29.7061 51.8513 29.2778 51.4949 28.8783C51.1638 28.5075 50.8146 28.126 50.3611 27.9172C49.9076 27.7084 49.3209 27.7084 48.9573 28.0468C48.4426 28.5291 48.6046 29.3678 48.8061 30.0445C48.3562 30.1417 47.9639 30.4728 47.7911 30.9012C47.6183 31.3295 47.6723 31.8406 47.9315 32.2222C47.4384 32.3913 47.1756 32.9744 47.244 33.4928C47.3124 34.0111 47.6399 34.4574 48.0215 34.8102C47.7875 34.9073 47.7299 35.2169 47.7407 35.4689C47.7875 36.5199 48.439 37.5205 49.3785 37.9885C49.67 38.1361 50.0156 38.2332 50.3215 38.1145C50.7247 37.9597 50.9118 37.4702 50.8614 37.0382C50.8074 36.6099 50.5735 36.2283 50.3431 35.8648C50.847 36.1924 51.6101 36.0196 51.9233 35.5013C52.2364 34.9865 52.0385 34.2306 51.5129 33.9355C51.8585 34.1299 52.3336 33.9283 52.5172 33.5755C52.7008 33.2228 52.636 32.7837 52.4524 32.4309C52.2652 32.0818 51.9737 31.801 51.7109 31.5527Z" fill="#FDC79C"/>
<path d="M43.0074 66.9999C42.8778 65.2037 44.4724 62.9757 46.0381 62.0182L46.0633 62.0038C47.5067 61.1255 49.1409 60.1285 49.4288 58.5159C49.6844 57.0942 48.8169 55.856 47.9027 54.5458C47.0496 53.3255 46.1641 52.0621 46.2181 50.5936C46.2649 49.2834 47.0496 48.1927 47.8091 47.1381C47.971 46.9113 48.1366 46.6809 48.295 46.4506C49.5656 44.5753 50.3395 42.3904 50.5267 40.1335L50.901 40.1659C50.7102 42.4876 49.9147 44.7372 48.6081 46.663C48.4498 46.8969 48.2806 47.1309 48.1186 47.3576C47.3915 48.3655 46.6428 49.4093 46.5997 50.608C46.5493 51.9505 47.3987 53.16 48.2158 54.3298C49.1337 55.6436 50.0875 57.0042 49.8032 58.5807C49.4864 60.3589 47.7731 61.4027 46.2649 62.3242L46.2397 62.3386C44.7963 63.2204 43.2666 65.3405 43.3853 66.9747L43.0074 66.9999Z" fill="#696969"/>
<path opacity="0.65" d="M51.0487 31.6316C51.0343 31.6316 51.0199 31.628 51.0055 31.6244C50.2388 31.3112 49.5513 30.8073 49.015 30.1738C48.9754 30.127 48.9826 30.055 49.0294 30.0154C49.0762 29.9759 49.1481 29.9831 49.1877 30.0298C49.6989 30.6382 50.354 31.1169 51.0882 31.4156C51.1458 31.4408 51.1746 31.5056 51.1494 31.5632C51.135 31.6064 51.0918 31.6316 51.0487 31.6316Z" fill="black"/>
<path opacity="0.65" d="M50.6202 33.8274C50.6058 33.8274 50.595 33.8238 50.5806 33.8202C49.7564 33.5071 49.238 33.1183 48.6369 32.672C48.4786 32.5532 48.3166 32.4308 48.1366 32.3049C48.0862 32.2689 48.0754 32.1969 48.1114 32.1465C48.1474 32.0961 48.2194 32.0853 48.2698 32.1213C48.4498 32.2509 48.6153 32.3733 48.7737 32.492C49.3856 32.9492 49.8715 33.3091 50.6634 33.6115C50.721 33.6331 50.7498 33.6979 50.7282 33.759C50.7102 33.8022 50.667 33.8274 50.6202 33.8274Z" fill="black"/>
<path opacity="0.65" d="M50.0047 36.0124C49.9903 36.0124 49.9759 36.0088 49.9651 36.0052C49.3172 35.7496 48.7053 35.4185 48.1366 35.0153C48.0862 34.9793 48.0754 34.9109 48.1114 34.8569C48.1474 34.8065 48.2158 34.7957 48.2698 34.8317C48.8241 35.2241 49.4216 35.548 50.0515 35.7964C50.1091 35.818 50.1379 35.8828 50.1163 35.944C50.0911 35.9836 50.0479 36.0124 50.0047 36.0124Z" fill="black"/>
<path opacity="0.65" d="M55.3823 41.1847C54.5185 41.1847 53.7482 40.8752 53.2659 40.3244C53.2263 40.2776 53.2299 40.2057 53.2767 40.1661C53.3235 40.1265 53.3954 40.1301 53.435 40.1769C53.9462 40.76 54.8172 41.0443 55.7711 40.9363C56.6673 40.8356 57.5384 40.4216 58.2439 40.0905C58.3015 40.0653 58.3663 40.0869 58.3951 40.1445C58.4203 40.2021 58.3987 40.2668 58.3411 40.2956C57.6248 40.634 56.7321 41.0587 55.7999 41.1631C55.6559 41.1775 55.5191 41.1847 55.3823 41.1847Z" fill="black"/>
<g opacity="0.65">
<mask id="path-36-inside-1_1440_49582" fill="white">
<path d="M60.8754 51.8701C60.8635 51.8701 60.8516 51.8701 60.8397 51.8642C60.1609 51.5737 59.4464 51.4077 58.7557 51.2536C58.2595 51.141 57.7435 51.0224 57.2433 50.8624C55.7587 50.3763 54.6751 49.4812 54.0241 48.2127C53.9844 48.1297 53.9923 48.0171 54.0479 47.9518C54.1035 47.8926 54.1789 47.9044 54.2226 47.9874C54.8378 49.1908 55.8739 50.0325 57.2989 50.5008C57.7911 50.6609 58.3032 50.7794 58.7954 50.892C59.494 51.0521 60.2165 51.2121 60.9111 51.5144C60.9786 51.5441 61.0143 51.6449 60.9945 51.7456C60.9786 51.8168 60.927 51.8701 60.8754 51.8701Z"/>
</mask>
<path d="M60.8754 51.8701C60.8635 51.8701 60.8516 51.8701 60.8397 51.8642C60.1609 51.5737 59.4464 51.4077 58.7557 51.2536C58.2595 51.141 57.7435 51.0224 57.2433 50.8624C55.7587 50.3763 54.6751 49.4812 54.0241 48.2127C53.9844 48.1297 53.9923 48.0171 54.0479 47.9518C54.1035 47.8926 54.1789 47.9044 54.2226 47.9874C54.8378 49.1908 55.8739 50.0325 57.2989 50.5008C57.7911 50.6609 58.3032 50.7794 58.7954 50.892C59.494 51.0521 60.2165 51.2121 60.9111 51.5144C60.9786 51.5441 61.0143 51.6449 60.9945 51.7456C60.9786 51.8168 60.927 51.8701 60.8754 51.8701Z" fill="#FBBE18"/>
<path d="M60.8397 51.8642L61.2853 50.969L61.2595 50.9562L61.2331 50.9448L60.8397 51.8642ZM58.7557 51.2536L58.5343 52.2288L58.5379 52.2296L58.7557 51.2536ZM57.2433 50.8624L56.9322 51.8128L56.9385 51.8148L57.2433 50.8624ZM54.0241 48.2127L53.122 48.6442L53.128 48.6568L53.1344 48.6692L54.0241 48.2127ZM54.0479 47.9518L53.3184 47.2679L53.3022 47.2852L53.2868 47.3032L54.0479 47.9518ZM54.2226 47.9874L55.113 47.5321L55.1075 47.5218L54.2226 47.9874ZM57.2989 50.5008L56.9867 51.4508L56.9897 51.4518L57.2989 50.5008ZM58.7954 50.892L59.0187 49.9173L59.0184 49.9172L58.7954 50.892ZM60.9111 51.5144L61.3133 50.5989L61.3102 50.5975L60.9111 51.5144ZM60.9945 51.7456L61.9705 51.9635L61.9732 51.9512L61.9756 51.9389L60.9945 51.7456ZM60.8754 50.8701C60.838 50.8701 61.0574 50.8556 61.2853 50.969L60.394 52.7594C60.5238 52.824 60.6443 52.8506 60.7342 52.8617C60.777 52.8671 60.8126 52.8688 60.8355 52.8695C60.8565 52.8702 60.8751 52.8701 60.8754 52.8701V50.8701ZM61.2331 50.9448C60.4582 50.6132 59.6584 50.4305 58.9735 50.2776L58.5379 52.2296C59.2343 52.385 59.8636 52.5342 60.4463 52.7836L61.2331 50.9448ZM58.977 50.2784C58.4765 50.1648 58.0011 50.0549 57.5481 49.91L56.9385 51.8148C57.4859 51.99 58.0425 52.1172 58.5343 52.2288L58.977 50.2784ZM57.5545 49.912C56.2959 49.4999 55.4332 48.7684 54.9138 47.7561L53.1344 48.6692C53.9169 50.1941 55.2216 51.2527 56.9322 51.8128L57.5545 49.912ZM54.9262 47.7812C54.9899 47.9144 55.0064 48.0458 54.9967 48.1603C54.9872 48.2712 54.946 48.4397 54.809 48.6005L53.2868 47.3032C52.9302 47.7216 52.9438 48.2716 53.122 48.6442L54.9262 47.7812ZM54.7774 48.6358C54.624 48.7994 54.3279 48.9698 53.9534 48.8988C53.5996 48.8317 53.4115 48.5935 53.3376 48.453L55.1075 47.5218C54.9899 47.2983 54.7423 47.0127 54.326 46.9338C53.8889 46.8509 53.5273 47.045 53.3184 47.2679L54.7774 48.6358ZM53.3322 48.4427C54.0824 49.91 55.3443 50.9111 56.9867 51.4508L57.6111 49.5508C56.4034 49.1539 55.5932 48.4715 55.1129 47.5322L53.3322 48.4427ZM56.9897 51.4518C57.5307 51.6277 58.085 51.7553 58.5723 51.8668L59.0184 49.9172C58.5214 49.8035 58.0515 49.694 57.6081 49.5498L56.9897 51.4518ZM58.5721 51.8668C59.2909 52.0315 59.9183 52.173 60.5121 52.4314L61.3102 50.5975C60.5147 50.2513 59.6971 50.0727 59.0187 49.9173L58.5721 51.8668ZM60.509 52.43C60.216 52.3013 60.0901 52.0688 60.0443 51.941C59.9944 51.802 59.9905 51.6681 60.0133 51.5524L61.9756 51.9389C62.0183 51.7224 62.0065 51.4877 61.9268 51.2657C61.8512 51.0549 61.6737 50.7572 61.3133 50.5989L60.509 52.43ZM60.0185 51.5278C60.0477 51.397 60.1132 51.2605 60.2268 51.1421C60.3332 51.0313 60.5519 50.8701 60.8754 50.8701V52.8701C61.2505 52.8701 61.5208 52.6822 61.6698 52.527C61.8261 52.3641 61.9254 52.1654 61.9705 51.9635L60.0185 51.5278Z" fill="#FBBE18" mask="url(#path-36-inside-1_1440_49582)"/>
</g>
<g opacity="0.65">
<mask id="path-38-inside-2_1440_49582" fill="white">
<path d="M59.8584 55C59.8584 55 59.854 55 59.8584 55C57.7352 54.9683 55.6208 53.9814 54.046 52.2872C53.9885 52.2238 53.9841 52.1235 54.0372 52.0549C54.0903 51.9863 54.1743 51.981 54.2318 52.0444C55.7579 53.6858 57.806 54.6411 59.8629 54.6728C59.9381 54.6728 60 54.7467 60 54.8417C59.9956 54.9261 59.9336 55 59.8584 55Z"/>
</mask>
<path d="M59.8584 55C59.8584 55 59.854 55 59.8584 55C57.7352 54.9683 55.6208 53.9814 54.046 52.2872C53.9885 52.2238 53.9841 52.1235 54.0372 52.0549C54.0903 51.9863 54.1743 51.981 54.2318 52.0444C55.7579 53.6858 57.806 54.6411 59.8629 54.6728C59.9381 54.6728 60 54.7467 60 54.8417C59.9956 54.9261 59.9336 55 59.8584 55Z" fill="#FBBE18"/>
<path d="M59.8584 55V56L59.8734 54.0001L59.8584 55ZM54.046 52.2872L53.3056 52.9594L53.3136 52.968L54.046 52.2872ZM54.2318 52.0444L53.4914 52.7166L53.4995 52.7253L54.2318 52.0444ZM59.8629 54.6728L59.8475 55.6727L59.8552 55.6728H59.8629V54.6728ZM60 54.8417L60.9986 54.894L61 54.8678V54.8417H60ZM59.8584 55C59.8584 54 59.8584 54 59.8584 54H59.8584C59.8584 54 59.8584 54 59.8584 54C59.8584 54 59.8584 54 59.8584 54C59.8584 54 59.8584 54 59.8584 54H59.8584C59.8584 54 59.8584 54 59.8584 54H59.8584C59.8584 54 59.8584 54 59.8584 54C59.8584 54 59.8584 54 59.8584 54C59.8584 54 59.8584 54 59.8584 54C59.8584 54 59.8584 54 59.8584 54C59.8584 54 59.8584 54 59.8584 54C59.8584 54 59.8584 54 59.8584 54C59.8584 54 59.8584 54 59.8584 54C59.8584 54 59.8584 54 59.8584 54C59.8584 54 59.8584 54 59.8584 54C59.8584 54 59.8584 54 59.8584 54C59.8584 54 59.8584 54 59.8584 54C59.8584 54 59.8584 54 59.8584 54C59.8584 54 59.8584 54 59.8584 54C59.8584 54 59.8584 54 59.8584 54C59.8584 54 59.8584 54 59.8584 54C59.8584 54 59.8584 54 59.8584 54C59.8584 54 59.8584 54 59.8584 54C59.8584 54 59.8584 54 59.8584 54C59.8584 54 59.8584 54 59.8584 54C59.8584 54 59.8584 54 59.8584 54C59.8584 54 59.8584 54 59.8584 54C59.8584 54 59.8584 54 59.8584 54C59.8584 54 59.8584 54 59.8584 54C59.8584 54 59.8584 54 59.8584 54C59.8584 54 59.8584 54 59.8584 54C59.8584 54 59.8584 54 59.8584 54C59.8584 54 59.8584 54 59.8584 54C59.8584 54 59.8584 54 59.8584 54C59.8584 54 59.8584 54 59.8584 54C59.8584 54 59.8584 54 59.8584 54C59.8584 54 59.8584 54 59.8584 54C59.8584 54 59.8584 54 59.8584 54C59.8584 54 59.8584 54 59.8584 54C59.8584 54 59.8584 54 59.8584 54C59.8584 54 59.8584 54 59.8584 54C59.8584 54 59.8584 54 59.8584 54C59.8584 54 59.8584 54 59.8583 54C59.8583 54 59.8583 54 59.8583 54C59.8583 54 59.8583 54 59.8583 54C59.8583 54 59.8583 54 59.8583 54C59.8583 54 59.8583 54 59.8583 54C59.8583 54 59.8583 54 59.8583 54C59.8583 54 59.8583 54 59.8583 54C59.8583 54 59.8583 54 59.8583 54C59.8583 54 59.8583 54 59.8583 54C59.8583 54 59.8583 54 59.8583 54C59.8583 54 59.8583 54 59.8583 54C59.8583 54 59.8583 54 59.8583 54C59.8583 54 59.8583 54 59.8583 54C59.8583 54 59.8583 54 59.8583 54C59.8583 54 59.8583 54 59.8583 54C59.8583 54 59.8583 54 59.8583 54C59.8583 54 59.8583 54 59.8583 54C59.8583 54 59.8583 54 59.8583 54C59.8583 54 59.8583 54 59.8583 54C59.8583 54 59.8583 54 59.8583 54C59.8583 54 59.8583 54 59.8583 54C59.8583 54 59.8583 54 59.8582 54C59.8582 54 59.8582 54 59.8582 54C59.8582 54 59.8582 54 59.8582 54C59.8582 54 59.8582 54 59.8582 54C59.8582 54 59.8582 54 59.8582 54C59.8582 54 59.8582 54 59.8582 54C59.8582 54 59.8582 54 59.8582 54C59.8582 54 59.8582 54 59.8582 54C59.8582 54 59.8582 54 59.8582 54C59.8582 54 59.8582 54 59.8582 54C59.8582 54 59.8582 54 59.8582 54C59.8582 54 59.8582 54 59.8582 54C59.8582 54 59.8582 54 59.8582 54C59.8582 54 59.8582 54 59.8582 54C59.8582 54 59.8582 54 59.8582 54C59.8582 54 59.8582 54 59.8582 54C59.8582 54 59.8582 54 59.8582 54C59.8582 54 59.8582 54 59.8581 54C59.8581 54 59.8581 54 59.8581 54C59.8581 54 59.8581 54 59.8581 54C59.8581 54 59.8581 54 59.8581 54C59.8581 54 59.8581 54 59.8581 54C59.8581 54 59.8581 54 59.8581 54C59.8581 54 59.8581 54 59.8581 54C59.8581 54 59.8581 54 59.8581 54C59.8581 54 59.8581 54 59.8581 54C59.8581 54 59.8581 54 59.8581 54C59.8581 54 59.8581 54 59.8581 54C59.8581 54 59.8581 54 59.8581 54C59.8581 54 59.8581 54 59.8581 54C59.8581 54 59.8581 54 59.8581 54C59.8581 54 59.8581 54 59.8581 54C59.8581 54 59.858 54 59.858 54C59.858 54 59.858 54 59.858 54C59.858 54 59.858 54 59.858 54C59.858 54 59.858 54 59.858 54C59.858 54 59.858 54 59.858 54C59.858 54 59.858 54 59.858 54C59.858 54 59.858 54 59.858 54C59.858 54 59.858 54 59.858 54C59.858 54 59.858 54 59.858 54C59.858 54 59.858 54 59.858 54C59.858 54 59.858 54 59.858 54C59.858 54 59.858 54 59.858 54C59.858 54 59.858 54 59.858 54C59.858 54 59.858 54 59.858 54C59.8579 54 59.8579 54 59.8579 54C59.8579 54 59.8579 54 59.8579 54C59.8579 54 59.8579 54 59.8579 54C59.8579 54 59.8579 54 59.8579 54C59.8579 54 59.8579 54 59.8579 54C59.8579 54 59.8579 54 59.8579 54C59.8579 54 59.8579 54 59.8579 54C59.8579 54 59.8579 54 59.8579 54C59.8579 54 59.8579 54 59.8579 54C59.8579 54 59.8579 54 59.8579 54C59.8579 54 59.8579 54 59.8579 54C59.8579 54 59.8579 54 59.8579 54C59.8579 54 59.8579 54 59.8578 54C59.8578 54 59.8578 54 59.8578 54C59.8578 54 59.8578 54 59.8578 54C59.8578 54 59.8578 54 59.8578 54C59.8578 54 59.8578 54 59.8578 54C59.8578 54 59.8578 54 59.8578 54C59.8578 54 59.8578 54 59.8578 54C59.8578 54 59.8578 54 59.8578 54C59.8578 54 59.8578 54 59.8578 54C59.8578 54 59.8578 54 59.8578 54C59.8578 54 59.8578 54 59.8578 54C59.8578 54 59.8578 54 59.8578 54C59.8578 54 59.8578 54 59.8578 54C59.8577 54 59.8577 54 59.8577 54C59.8577 54 59.8577 54 59.8577 54C59.8577 54 59.8577 54 59.8577 54C59.8577 54 59.8577 54 59.8577 54C59.8577 54 59.8577 54 59.8577 54C59.8577 54 59.8577 54 59.8577 54C59.8577 54 59.8577 54 59.8577 54C59.8577 54 59.8577 54 59.8577 54C59.8577 54 59.8577 54 59.8577 54C59.8577 54 59.8577 54 59.8577 54C59.8577 54 59.8577 54 59.8577 54C59.8577 54 59.8577 54 59.8576 54C59.8576 54 59.8576 54 59.8576 54C59.8576 54 59.8576 54 59.8576 54C59.8576 54 59.8576 54 59.8576 54C59.8576 54 59.8576 54 59.8576 54C59.8576 54 59.8576 54 59.8576 54C59.8576 54 59.8576 54 59.8576 54C59.8576 54 59.8576 54 59.8576 54C59.8576 54 59.8576 54 59.8576 54C59.8576 54 59.8576 54 59.8576 54C59.8576 54 59.8576 54 59.8576 54C59.8576 54 59.8576 54 59.8576 54C59.8576 54 59.8576 54 59.8575 54C59.8575 54 59.8575 54 59.8575 54C59.8575 54 59.8575 54 59.8575 54C59.8575 54 59.8575 54 59.8575 54C59.8575 54 59.8575 54 59.8575 54C59.8575 54 59.8575 54 59.8575 54C59.8575 54 59.8575 54 59.8575 54C59.8575 54 59.8575 54 59.8575 54C59.8575 54 59.8575 54 59.8575 54C59.8575 54 59.8575 54 59.8575 54C59.8575 54 59.8575 54 59.8575 54C59.8575 54 59.8575 54 59.8575 54C59.8574 54 59.8574 54 59.8574 54C59.8574 54 59.8574 54 59.8574 54C59.8574 54 59.8574 54 59.8574 54C59.8574 54 59.8574 54 59.8574 54C59.8574 54 59.8574 54 59.8574 54C59.8574 54 59.8574 54 59.8574 54C59.8574 54 59.8574 54 59.8574 54C59.8574 54 59.8574 54 59.8574 54C59.8574 54 59.8574 54 59.8574 54C59.8574 54 59.8574 54 59.8574 54C59.8574 54 59.8574 54 59.8574 54C59.8574 54 59.8574 54 59.8573 54C59.8573 54 59.8573 54 59.8573 54C59.8573 54 59.8573 54 59.8573 54C59.8573 54 59.8573 54 59.8573 54C59.8573 54 59.8573 54 59.8573 54C59.8573 54 59.8573 54 59.8573 54C59.8573 54 59.8573 54 59.8573 54C59.8573 54 59.8573 54 59.8573 54C59.8573 54 59.8573 54 59.8573 54C59.8573 54 59.8573 54 59.8573 54C59.8573 54 59.8573 54 59.8573 54C59.8573 54 59.8573 54 59.8573 54C59.8573 54 59.8572 54 59.8572 54C59.8572 54 59.8572 54 59.8572 54C59.8572 54 59.8572 54 59.8572 54C59.8572 54 59.8572 54 59.8572 54C59.8572 54 59.8572 54 59.8572 54C59.8572 54 59.8572 54 59.8572 54C59.8572 54 59.8572 54 59.8572 54C59.8572 54 59.8572 54 59.8572 54C59.8572 54 59.8572 54 59.8572 54C59.8572 54 59.8572 54 59.8572 54C59.8572 54 59.8572 54 59.8572 54C59.8572 54 59.8572 54 59.8572 54C59.8572 54 59.8571 54 59.8571 54C59.8571 54 59.8571 54 59.8571 54C59.8571 54 59.8571 54 59.8571 54C59.8571 54 59.8571 54 59.8571 54C59.8571 54 59.8571 54 59.8571 54C59.8571 54 59.8571 54 59.8571 54C59.8571 54 59.8571 54 59.8571 54C59.8571 54 59.8571 54 59.8571 54C59.8571 54 59.8571 54 59.8571 54C59.8571 54 59.8571 54 59.8571 54C59.8571 54 59.8571 54 59.8571 54C59.8571 54 59.8571 54 59.8571 54C59.8571 54 59.8571 54 59.857 54C59.857 54 59.857 54 59.857 54C59.857 54 59.857 54 59.857 54C59.857 54 59.857 54 59.857 54C59.857 54 59.857 54 59.857 54C59.857 54 59.857 54 59.857 54C59.857 54 59.857 54 59.857 54C59.857 54 59.857 54 59.857 54C59.857 54 59.857 54 59.857 54C59.857 54 59.857 54 59.857 54C59.857 54 59.857 54 59.857 54C59.857 54 59.857 54 59.857 54C59.857 54 59.857 54 59.857 54C59.857 54 59.857 54 59.8569 54C59.8569 54 59.8569 54 59.8569 54C59.8569 54 59.8569 54 59.8569 54C59.8569 54 59.8569 54 59.8569 54C59.8569 54 59.8569 54 59.8569 54C59.8569 54 59.8569 54 59.8569 54C59.8569 54 59.8569 54 59.8569 54C59.8569 54 59.8569 54 59.8569 54C59.8569 54 59.8569 54 59.8569 54C59.8569 54 59.8569 54 59.8569 54C59.8569 54 59.8569 54 59.8569 54C59.8569 54 59.8569 54 59.8569 54C59.8569 54 59.8569 54 59.8569 54C59.8569 54 59.8569 54 59.8569 54C59.8569 54 59.8569 54 59.8568 54C59.8568 54 59.8568 54 59.8568 54C59.8568 54 59.8568 54 59.8568 54C59.8568 54 59.8568 54 59.8568 54C59.8568 54 59.8568 54 59.8568 54C59.8568 54 59.8568 54 59.8568 54C59.8568 54 59.8568 54 59.8568 54C59.8568 54 59.8568 54 59.8568 54C59.8568 54 59.8568 54 59.8568 54C59.8568 54 59.8568 54 59.8568 54C59.8568 54 59.8568 54 59.8568 54C59.8568 54 59.8568 54 59.8568 54C59.8568 54 59.8568 54 59.8568 54C59.8568 54 59.8568 54 59.8568 54C59.8568 54 59.8568 54 59.8568 54C59.8568 54 59.8568 54 59.8568 54C59.8567 54 59.8567 54 59.8567 54C59.8567 54 59.8567 54 59.8567 54C59.8567 54 59.8567 54 59.8567 54C59.8567 54 59.8567 54 59.8567 54C59.8567 54 59.8567 54 59.8567 54C59.8567 54 59.8567 54 59.8567 54C59.8567 54 59.8567 54 59.8567 54C59.8567 54 59.8567 54 59.8567 54C59.8567 54 59.8567 54 59.8567 54C59.8567 54 59.8567 54 59.8567 54C59.8567 54 59.8567 54 59.8567 54C59.8567 54 59.8567 54 59.8567 54C59.8567 54 59.8567 54 59.8567 54C59.8567 54 59.8567 54 59.8567 54C59.8567 54 59.8567 54 59.8567 54C59.8567 54 59.8567 54 59.8567 54C59.8567 54 59.8567 54 59.8567 54C59.8567 54 59.8566 54 59.8566 54C59.8566 54 59.8566 54 59.8566 54C59.8566 54 59.8566 54 59.8566 54C59.8566 54 59.8566 54 59.8566 54C59.8566 54 59.8566 54 59.8566 54C59.8566 54 59.8566 54 59.8566 54C59.8566 54 59.8566 54 59.8566 54C59.8566 54 59.8566 54 59.8566 54C59.8566 54 59.8566 54 59.8566 54C59.8566 54 59.8566 54 59.8566 54C59.8566 54 59.8566 54 59.8566 54C59.8566 54 59.8566 54 59.8566 54C59.8566 54 59.8566 54 59.8566 54C59.8566 54 59.8566 54 59.8566 54C59.8566 54 59.8566 54 59.8566 54C59.8566 54 59.8566 54 59.8566 54C59.8566 54 59.8566 54 59.8566 54C59.8566 54 59.8566 54 59.8566 54C59.8566 54 59.8566 54 59.8566 54C59.8566 54 59.8566 54 59.8566 54C59.8566 54 59.8566 54 59.8566 54C59.8566 54 59.8566 54 59.8566 54C59.8566 54 59.8566 54 59.8566 54C59.8566 54 59.8566 54 59.8565 54C59.8565 54 59.8565 54 59.8565 54C59.8565 54 59.8565 54 59.8565 54C59.8565 54 59.8565 54 59.8565 54C59.8565 54 59.8565 54 59.8565 54C59.8565 54 59.8565 54 59.8565 54C59.8565 54 59.8565 54 59.8565 54C59.8565 54 59.8565 54 59.8565 54C59.8565 54 59.8565 54 59.8565 54C59.8565 54 59.8565 54 59.8565 54C59.8565 54 59.8565 54 59.8565 54C59.8565 54 59.8565 54 59.8565 54C59.8565 54 59.8565 54 59.8565 54C59.8565 54 59.8565 54 59.8565 54C59.8565 54 59.8565 54 59.8565 54C59.8565 54 59.8565 54 59.8565 54C59.8565 54 59.8565 54 59.8565 54C59.8565 54 59.8565 54 59.8565 54C59.8565 54 59.8565 54 59.8565 54C59.8565 54 59.8565 54 59.8565 54C59.8565 54 59.8565 54 59.8565 54C59.8565 54 59.8565 54 59.8565 54C59.8565 54 59.8565 54 59.8565 54C59.8565 54 59.8565 54 59.8565 54C59.8565 54 59.8565 54 59.8565 54C59.8565 54 59.8565 54 59.8565 54C59.8565 54 59.8565 54 59.8565 54C59.8565 54 59.8565 54 59.8565 54C59.8565 54 59.8565 54 59.8565 54C59.8565 54 59.8565 54 59.8565 54C59.8565 54 59.8565 54 59.8565 54H59.8565C59.8565 54 59.8565 54 59.8565 54C59.8565 54 59.8565 54 59.8565 54H59.8565C59.8565 54 59.8565 54 59.8565 54H59.8565C59.8565 55 59.8565 56 59.8565 56C59.8565 56 59.8565 56 59.8565 56C59.8565 56 59.8565 56 59.8565 56C59.8565 56 59.8565 56 59.8565 56C59.8565 56 59.8565 56 59.8565 56H59.8565C59.8565 56 59.8565 56 59.8565 56C59.8565 56 59.8565 56 59.8565 56C59.8565 56 59.8565 56 59.8565 56C59.8565 56 59.8565 56 59.8565 56C59.8565 56 59.8565 56 59.8565 56C59.8565 56 59.8565 56 59.8565 56C59.8565 56 59.8565 56 59.8565 56C59.8565 56 59.8565 56 59.8565 56C59.8565 56 59.8565 56 59.8565 56C59.8565 56 59.8565 56 59.8565 56C59.8565 56 59.8565 56 59.8565 56C59.8565 56 59.8565 56 59.8565 56C59.8565 56 59.8565 56 59.8565 56C59.8565 56 59.8565 56 59.8565 56C59.8565 56 59.8565 56 59.8565 56C59.8565 56 59.8565 56 59.8565 56C59.8565 56 59.8565 56 59.8565 56C59.8565 56 59.8565 56 59.8565 56C59.8565 56 59.8565 56 59.8565 56C59.8565 56 59.8565 56 59.8565 56C59.8565 56 59.8565 56 59.8565 56C59.8565 56 59.8565 56 59.8565 56C59.8565 56 59.8565 56 59.8565 56C59.8565 56 59.8565 56 59.8565 56C59.8565 56 59.8565 56 59.8565 56C59.8565 56 59.8565 56 59.8565 56C59.8565 56 59.8565 56 59.8565 56C59.8565 56 59.8565 56 59.8565 56C59.8566 56 59.8566 56 59.8566 56C59.8566 56 59.8566 56 59.8566 56C59.8566 56 59.8566 56 59.8566 56C59.8566 56 59.8566 56 59.8566 56C59.8566 56 59.8566 56 59.8566 56C59.8566 56 59.8566 56 59.8566 56C59.8566 56 59.8566 56 59.8566 56C59.8566 56 59.8566 56 59.8566 56C59.8566 56 59.8566 56 59.8566 56C59.8566 56 59.8566 56 59.8566 56C59.8566 56 59.8566 56 59.8566 56C59.8566 56 59.8566 56 59.8566 56C59.8566 56 59.8566 56 59.8566 56C59.8566 56 59.8566 56 59.8566 56C59.8566 56 59.8566 56 59.8566 56C59.8566 56 59.8566 56 59.8566 56C59.8566 56 59.8566 56 59.8566 56C59.8566 56 59.8566 56 59.8566 56C59.8566 56 59.8566 56 59.8566 56C59.8567 56 59.8567 56 59.8567 56C59.8567 56 59.8567 56 59.8567 56C59.8567 56 59.8567 56 59.8567 56C59.8567 56 59.8567 56 59.8567 56C59.8567 56 59.8567 56 59.8567 56C59.8567 56 59.8567 56 59.8567 56C59.8567 56 59.8567 56 59.8567 56C59.8567 56 59.8567 56 59.8567 56C59.8567 56 59.8567 56 59.8567 56C59.8567 56 59.8567 56 59.8567 56C59.8567 56 59.8567 56 59.8567 56C59.8567 56 59.8567 56 59.8567 56C59.8567 56 59.8567 56 59.8567 56C59.8567 56 59.8567 56 59.8568 56C59.8568 56 59.8568 56 59.8568 56C59.8568 56 59.8568 56 59.8568 56C59.8568 56 59.8568 56 59.8568 56C59.8568 56 59.8568 56 59.8568 56C59.8568 56 59.8568 56 59.8568 56C59.8568 56 59.8568 56 59.8568 56C59.8568 56 59.8568 56 59.8568 56C59.8568 56 59.8568 56 59.8568 56C59.8568 56 59.8568 56 59.8568 56C59.8568 56 59.8568 56 59.8568 56C59.8568 56 59.8568 56 59.8569 56C59.8569 56 59.8569 56 59.8569 56C59.8569 56 59.8569 56 59.8569 56C59.8569 56 59.8569 56 59.8569 56C59.8569 56 59.8569 56 59.8569 56C59.8569 56 59.8569 56 59.8569 56C59.8569 56 59.8569 56 59.8569 56C59.8569 56 59.8569 56 59.8569 56C59.8569 56 59.8569 56 59.8569 56C59.8569 56 59.8569 56 59.8569 56C59.857 56 59.857 56 59.857 56C59.857 56 59.857 56 59.857 56C59.857 56 59.857 56 59.857 56C59.857 56 59.857 56 59.857 56C59.857 56 59.857 56 59.857 56C59.857 56 59.857 56 59.857 56C59.857 56 59.857 56 59.857 56C59.857 56 59.857 56 59.857 56C59.857 56 59.8571 56 59.8571 56C59.8571 56 59.8571 56 59.8571 56C59.8571 56 59.8571 56 59.8571 56C59.8571 56 59.8571 56 59.8571 56C59.8571 56 59.8571 56 59.8571 56C59.8571 56 59.8571 56 59.8571 56C59.8571 56 59.8571 56 59.8571 56C59.8571 56 59.8571 56 59.8571 56C59.8572 56 59.8572 56 59.8572 56C59.8572 56 59.8572 56 59.8572 56C59.8572 56 59.8572 56 59.8572 56C59.8572 56 59.8572 56 59.8572 56C59.8572 56 59.8572 56 59.8572 56C59.8572 56 59.8572 56 59.8572 56C59.8572 56 59.8572 56 59.8572 56C59.8573 56 59.8573 56 59.8573 56C59.8573 56 59.8573 56 59.8573 56C59.8573 56 59.8573 56 59.8573 56C59.8573 56 59.8573 56 59.8573 56C59.8573 56 59.8573 56 59.8573 56C59.8573 56 59.8573 56 59.8573 56C59.8573 56 59.8574 56 59.8574 56C59.8574 56 59.8574 56 59.8574 56C59.8574 56 59.8574 56 59.8574 56C59.8574 56 59.8574 56 59.8574 56C59.8574 56 59.8574 56 59.8574 56C59.8574 56 59.8574 56 59.8574 56C59.8574 56 59.8575 56 59.8575 56C59.8575 56 59.8575 56 59.8575 56C59.8575 56 59.8575 56 59.8575 56C59.8575 56 59.8575 56 59.8575 56C59.8575 56 59.8575 56 59.8575 56C59.8575 56 59.8575 56 59.8575 56C59.8576 56 59.8576 56 59.8576 56C59.8576 56 59.8576 56 59.8576 56C59.8576 56 59.8576 56 59.8576 56C59.8576 56 59.8576 56 59.8576 56C59.8576 56 59.8576 56 59.8576 56C59.8576 56 59.8577 56 59.8577 56C59.8577 56 59.8577 56 59.8577 56C59.8577 56 59.8577 56 59.8577 56C59.8577 56 59.8577 56 59.8577 56C59.8577 56 59.8577 56 59.8577 56C59.8577 56 59.8578 56 59.8578 56C59.8578 56 59.8578 56 59.8578 56C59.8578 56 59.8578 56 59.8578 56C59.8578 56 59.8578 56 59.8578 56C59.8578 56 59.8578 56 59.8578 56C59.8578 56 59.8579 56 59.8579 56C59.8579 56 59.8579 56 59.8579 56C59.8579 56 59.8579 56 59.8579 56C59.8579 56 59.8579 56 59.8579 56C59.8579 56 59.8579 56 59.8579 56C59.858 56 59.858 56 59.858 56C59.858 56 59.858 56 59.858 56C59.858 56 59.858 56 59.858 56C59.858 56 59.858 56 59.858 56C59.858 56 59.858 56 59.8581 56C59.8581 56 59.8581 56 59.8581 56C59.8581 56 59.8581 56 59.8581 56C59.8581 56 59.8581 56 59.8581 56C59.8581 56 59.8581 56 59.8582 56C59.8582 56 59.8582 56 59.8582 56C59.8582 56 59.8582 56 59.8582 56C59.8582 56 59.8582 56 59.8582 56C59.8582 56 59.8582 56 59.8582 56C59.8583 56 59.8583 56 59.8583 56C59.8583 56 59.8583 56 59.8583 56C59.8583 56 59.8583 56 59.8583 56C59.8583 56 59.8583 56 59.8583 56C59.8584 56 59.8584 56 59.8584 56C59.8584 56 59.8584 56 59.8584 56C59.8584 56 59.8584 56 59.8584 56C59.8584 56 59.8584 56 59.8584 56V54C59.8584 54 59.8584 54 59.8584 54C59.8584 54 59.8584 54 59.8584 54C59.8584 54 59.8584 54 59.8584 54C59.8584 54 59.8584 54 59.8583 54C59.8583 54 59.8583 54 59.8583 54C59.8583 54 59.8583 54 59.8583 54C59.8583 54 59.8583 54 59.8583 54C59.8583 54 59.8583 54 59.8582 54C59.8582 54 59.8582 54 59.8582 54C59.8582 54 59.8582 54 59.8582 54C59.8582 54 59.8582 54 59.8582 54C59.8582 54 59.8582 54 59.8582 54C59.8581 54 59.8581 54 59.8581 54C59.8581 54 59.8581 54 59.8581 54C59.8581 54 59.8581 54 59.8581 54C59.8581 54 59.8581 54 59.8581 54C59.858 54 59.858 54 59.858 54C59.858 54 59.858 54 59.858 54C59.858 54 59.858 54 59.858 54C59.858 54 59.858 54 59.858 54C59.858 54 59.858 54 59.8579 54C59.8579 54 59.8579 54 59.8579 54C59.8579 54 59.8579 54 59.8579 54C59.8579 54 59.8579 54 59.8579 54C59.8579 54 59.8579 54 59.8579 54C59.8579 54 59.8578 54 59.8578 54C59.8578 54 59.8578 54 59.8578 54C59.8578 54 59.8578 54 59.8578 54C59.8578 54 59.8578 54 59.8578 54C59.8578 54 59.8578 54 59.8578 54C59.8578 54 59.8577 54 59.8577 54C59.8577 54 59.8577 54 59.8577 54C59.8577 54 59.8577 54 59.8577 54C59.8577 54 59.8577 54 59.8577 54C59.8577 54 59.8577 54 59.8577 54C59.8577 54 59.8576 54 59.8576 54C59.8576 54 59.8576 54 59.8576 54C59.8576 54 59.8576 54 59.8576 54C59.8576 54 59.8576 54 59.8576 54C59.8576 54 59.8576 54 59.8576 54C59.8576 54 59.8576 54 59.8575 54C59.8575 54 59.8575 54 59.8575 54C59.8575 54 59.8575 54 59.8575 54C59.8575 54 59.8575 54 59.8575 54C59.8575 54 59.8575 54 59.8575 54C59.8575 54 59.8575 54 59.8575 54C59.8575 54 59.8574 54 59.8574 54C59.8574 54 59.8574 54 59.8574 54C59.8574 54 59.8574 54 59.8574 54C59.8574 54 59.8574 54 59.8574 54C59.8574 54 59.8574 54 59.8574 54C59.8574 54 59.8574 54 59.8574 54C59.8574 54 59.8573 54 59.8573 54C59.8573 54 59.8573 54 59.8573 54C59.8573 54 59.8573 54 59.8573 54C59.8573 54 59.8573 54 59.8573 54C59.8573 54 59.8573 54 59.8573 54C59.8573 54 59.8573 54 59.8573 54C59.8573 54 59.8573 54 59.8572 54C59.8572 54 59.8572 54 59.8572 54C59.8572 54 59.8572 54 59.8572 54C59.8572 54 59.8572 54 59.8572 54C59.8572 54 59.8572 54 59.8572 54C59.8572 54 59.8572 54 59.8572 54C59.8572 54 59.8572 54 59.8572 54C59.8572 54 59.8572 54 59.8571 54C59.8571 54 59.8571 54 59.8571 54C59.8571 54 59.8571 54 59.8571 54C59.8571 54 59.8571 54 59.8571 54C59.8571 54 59.8571 54 59.8571 54C59.8571 54 59.8571 54 59.8571 54C59.8571 54 59.8571 54 59.8571 54C59.8571 54 59.8571 54 59.8571 54C59.8571 54 59.857 54 59.857 54C59.857 54 59.857 54 59.857 54C59.857 54 59.857 54 59.857 54C59.857 54 59.857 54 59.857 54C59.857 54 59.857 54 59.857 54C59.857 54 59.857 54 59.857 54C59.857 54 59.857 54 59.857 54C59.857 54 59.857 54 59.857 54C59.857 54 59.857 54 59.8569 54C59.8569 54 59.8569 54 59.8569 54C59.8569 54 59.8569 54 59.8569 54C59.8569 54 59.8569 54 59.8569 54C59.8569 54 59.8569 54 59.8569 54C59.8569 54 59.8569 54 59.8569 54C59.8569 54 59.8569 54 59.8569 54C59.8569 54 59.8569 54 59.8569 54C59.8569 54 59.8569 54 59.8569 54C59.8569 54 59.8569 54 59.8569 54C59.8568 54 59.8568 54 59.8568 54C59.8568 54 59.8568 54 59.8568 54C59.8568 54 59.8568 54 59.8568 54C59.8568 54 59.8568 54 59.8568 54C59.8568 54 59.8568 54 59.8568 54C59.8568 54 59.8568 54 59.8568 54C59.8568 54 59.8568 54 59.8568 54C59.8568 54 59.8568 54 59.8568 54C59.8568 54 59.8568 54 59.8568 54C59.8568 54 59.8568 54 59.8568 54C59.8568 54 59.8568 54 59.8568 54C59.8567 54 59.8567 54 59.8567 54C59.8567 54 59.8567 54 59.8567 54C59.8567 54 59.8567 54 59.8567 54C59.8567 54 59.8567 54 59.8567 54C59.8567 54 59.8567 54 59.8567 54C59.8567 54 59.8567 54 59.8567 54C59.8567 54 59.8567 54 59.8567 54C59.8567 54 59.8567 54 59.8567 54C59.8567 54 59.8567 54 59.8567 54C59.8567 54 59.8567 54 59.8567 54C59.8567 54 59.8567 54 59.8567 54C59.8567 54 59.8567 54 59.8567 54C59.8567 54 59.8567 54 59.8567 54C59.8567 54 59.8567 54 59.8566 54C59.8566 54 59.8566 54 59.8566 54C59.8566 54 59.8566 54 59.8566 54C59.8566 54 59.8566 54 59.8566 54C59.8566 54 59.8566 54 59.8566 54C59.8566 54 59.8566 54 59.8566 54C59.8566 54 59.8566 54 59.8566 54C59.8566 54 59.8566 54 59.8566 54C59.8566 54 59.8566 54 59.8566 54C59.8566 54 59.8566 54 59.8566 54C59.8566 54 59.8566 54 59.8566 54C59.8566 54 59.8566 54 59.8566 54C59.8566 54 59.8566 54 59.8566 54C59.8566 54 59.8566 54 59.8566 54C59.8566 54 59.8566 54 59.8566 54C59.8566 54 59.8566 54 59.8566 54C59.8566 54 59.8566 54 59.8566 54C59.8566 54 59.8566 54 59.8566 54C59.8566 54 59.8566 54 59.8566 54C59.8566 54 59.8566 54 59.8565 54C59.8565 54 59.8565 54 59.8565 54C59.8565 54 59.8565 54 59.8565 54C59.8565 54 59.8565 54 59.8565 54C59.8565 54 59.8565 54 59.8565 54C59.8565 54 59.8565 54 59.8565 54C59.8565 54 59.8565 54 59.8565 54C59.8565 54 59.8565 54 59.8565 54C59.8565 54 59.8565 54 59.8565 54C59.8565 54 59.8565 54 59.8565 54C59.8565 54 59.8565 54 59.8565 54C59.8565 54 59.8565 54 59.8565 54C59.8565 54 59.8565 54 59.8565 54C59.8565 54 59.8565 54 59.8565 54C59.8565 54 59.8565 54 59.8565 54C59.8565 54 59.8565 54 59.8565 54C59.8565 54 59.8565 54 59.8565 54C59.8565 54 59.8565 54 59.8565 54C59.8565 54 59.8565 54 59.8565 54C59.8565 54 59.8565 54 59.8565 54C59.8565 54 59.8565 54 59.8565 54C59.8565 54 59.8565 54 59.8565 54C59.8565 54 59.8565 54 59.8565 54C59.8565 54 59.8565 54 59.8565 54C59.8565 54 59.8565 54 59.8565 54C59.8565 54 59.8565 54 59.8565 54C59.8565 54 59.8565 54 59.8565 54C59.8565 54 59.8565 54 59.8565 54C59.8565 54 59.8565 54 59.8565 54H59.8565C59.8565 54 59.8565 54 59.8565 54C59.8565 54 59.8565 54 59.8565 54C59.8565 54 59.8565 54 59.8565 54C59.8565 54 59.8565 54 59.8565 54C59.8565 54 59.8565 55 59.8565 56H59.8565C59.8565 56 59.8565 56 59.8565 56H59.8565C59.8565 56 59.8565 56 59.8565 56C59.8565 56 59.8565 56 59.8565 56H59.8565C59.8565 56 59.8565 56 59.8565 56C59.8565 56 59.8565 56 59.8565 56C59.8565 56 59.8565 56 59.8565 56C59.8565 56 59.8565 56 59.8565 56C59.8565 56 59.8565 56 59.8565 56C59.8565 56 59.8565 56 59.8565 56C59.8565 56 59.8565 56 59.8565 56C59.8565 56 59.8565 56 59.8565 56C59.8565 56 59.8565 56 59.8565 56C59.8565 56 59.8565 56 59.8565 56C59.8565 56 59.8565 56 59.8565 56C59.8565 56 59.8565 56 59.8565 56C59.8565 56 59.8565 56 59.8565 56C59.8565 56 59.8565 56 59.8565 56C59.8565 56 59.8565 56 59.8565 56C59.8565 56 59.8565 56 59.8565 56C59.8565 56 59.8565 56 59.8565 56C59.8565 56 59.8565 56 59.8565 56C59.8565 56 59.8565 56 59.8565 56C59.8565 56 59.8565 56 59.8565 56C59.8565 56 59.8565 56 59.8565 56C59.8565 56 59.8565 56 59.8565 56C59.8565 56 59.8565 56 59.8565 56C59.8565 56 59.8565 56 59.8565 56C59.8565 56 59.8565 56 59.8565 56C59.8565 56 59.8565 56 59.8565 56C59.8565 56 59.8565 56 59.8565 56C59.8565 56 59.8565 56 59.8565 56C59.8565 56 59.8565 56 59.8565 56C59.8565 56 59.8565 56 59.8565 56C59.8566 56 59.8566 56 59.8566 56C59.8566 56 59.8566 56 59.8566 56C59.8566 56 59.8566 56 59.8566 56C59.8566 56 59.8566 56 59.8566 56C59.8566 56 59.8566 56 59.8566 56C59.8566 56 59.8566 56 59.8566 56C59.8566 56 59.8566 56 59.8566 56C59.8566 56 59.8566 56 59.8566 56C59.8566 56 59.8566 56 59.8566 56C59.8566 56 59.8566 56 59.8566 56C59.8566 56 59.8566 56 59.8566 56C59.8566 56 59.8566 56 59.8566 56C59.8566 56 59.8566 56 59.8566 56C59.8566 56 59.8566 56 59.8566 56C59.8566 56 59.8566 56 59.8566 56C59.8566 56 59.8566 56 59.8566 56C59.8566 56 59.8566 56 59.8566 56C59.8566 56 59.8566 56 59.8566 56C59.8566 56 59.8566 56 59.8566 56C59.8566 56 59.8566 56 59.8566 56C59.8566 56 59.8566 56 59.8566 56C59.8566 56 59.8566 56 59.8566 56C59.8566 56 59.8566 56 59.8566 56C59.8566 56 59.8567 56 59.8567 56C59.8567 56 59.8567 56 59.8567 56C59.8567 56 59.8567 56 59.8567 56C59.8567 56 59.8567 56 59.8567 56C59.8567 56 59.8567 56 59.8567 56C59.8567 56 59.8567 56 59.8567 56C59.8567 56 59.8567 56 59.8567 56C59.8567 56 59.8567 56 59.8567 56C59.8567 56 59.8567 56 59.8567 56C59.8567 56 59.8567 56 59.8567 56C59.8567 56 59.8567 56 59.8567 56C59.8567 56 59.8567 56 59.8567 56C59.8567 56 59.8567 56 59.8567 56C59.8567 56 59.8567 56 59.8567 56C59.8567 56 59.8567 56 59.8567 56C59.8567 56 59.8567 56 59.8567 56C59.8567 56 59.8567 56 59.8567 56C59.8567 56 59.8567 56 59.8568 56C59.8568 56 59.8568 56 59.8568 56C59.8568 56 59.8568 56 59.8568 56C59.8568 56 59.8568 56 59.8568 56C59.8568 56 59.8568 56 59.8568 56C59.8568 56 59.8568 56 59.8568 56C59.8568 56 59.8568 56 59.8568 56C59.8568 56 59.8568 56 59.8568 56C59.8568 56 59.8568 56 59.8568 56C59.8568 56 59.8568 56 59.8568 56C59.8568 56 59.8568 56 59.8568 56C59.8568 56 59.8568 56 59.8568 56C59.8568 56 59.8568 56 59.8568 56C59.8568 56 59.8568 56 59.8568 56C59.8568 56 59.8568 56 59.8568 56C59.8568 56 59.8568 56 59.8568 56C59.8569 56 59.8569 56 59.8569 56C59.8569 56 59.8569 56 59.8569 56C59.8569 56 59.8569 56 59.8569 56C59.8569 56 59.8569 56 59.8569 56C59.8569 56 59.8569 56 59.8569 56C59.8569 56 59.8569 56 59.8569 56C59.8569 56 59.8569 56 59.8569 56C59.8569 56 59.8569 56 59.8569 56C59.8569 56 59.8569 56 59.8569 56C59.8569 56 59.8569 56 59.8569 56C59.8569 56 59.8569 56 59.8569 56C59.8569 56 59.8569 56 59.8569 56C59.8569 56 59.8569 56 59.8569 56C59.8569 56 59.8569 56 59.8569 56C59.857 56 59.857 56 59.857 56C59.857 56 59.857 56 59.857 56C59.857 56 59.857 56 59.857 56C59.857 56 59.857 56 59.857 56C59.857 56 59.857 56 59.857 56C59.857 56 59.857 56 59.857 56C59.857 56 59.857 56 59.857 56C59.857 56 59.857 56 59.857 56C59.857 56 59.857 56 59.857 56C59.857 56 59.857 56 59.857 56C59.857 56 59.857 56 59.857 56C59.857 56 59.857 56 59.857 56C59.857 56 59.857 56 59.857 56C59.8571 56 59.8571 56 59.8571 56C59.8571 56 59.8571 56 59.8571 56C59.8571 56 59.8571 56 59.8571 56C59.8571 56 59.8571 56 59.8571 56C59.8571 56 59.8571 56 59.8571 56C59.8571 56 59.8571 56 59.8571 56C59.8571 56 59.8571 56 59.8571 56C59.8571 56 59.8571 56 59.8571 56C59.8571 56 59.8571 56 59.8571 56C59.8571 56 59.8571 56 59.8571 56C59.8571 56 59.8571 56 59.8571 56C59.8571 56 59.8571 56 59.8571 56C59.8571 56 59.8572 56 59.8572 56C59.8572 56 59.8572 56 59.8572 56C59.8572 56 59.8572 56 59.8572 56C59.8572 56 59.8572 56 59.8572 56C59.8572 56 59.8572 56 59.8572 56C59.8572 56 59.8572 56 59.8572 56C59.8572 56 59.8572 56 59.8572 56C59.8572 56 59.8572 56 59.8572 56C59.8572 56 59.8572 56 59.8572 56C59.8572 56 59.8572 56 59.8572 56C59.8572 56 59.8572 56 59.8572 56C59.8572 56 59.8572 56 59.8572 56C59.8572 56 59.8573 56 59.8573 56C59.8573 56 59.8573 56 59.8573 56C59.8573 56 59.8573 56 59.8573 56C59.8573 56 59.8573 56 59.8573 56C59.8573 56 59.8573 56 59.8573 56C59.8573 56 59.8573 56 59.8573 56C59.8573 56 59.8573 56 59.8573 56C59.8573 56 59.8573 56 59.8573 56C59.8573 56 59.8573 56 59.8573 56C59.8573 56 59.8573 56 59.8573 56C59.8573 56 59.8573 56 59.8573 56C59.8573 56 59.8573 56 59.8573 56C59.8574 56 59.8574 56 59.8574 56C59.8574 56 59.8574 56 59.8574 56C59.8574 56 59.8574 56 59.8574 56C59.8574 56 59.8574 56 59.8574 56C59.8574 56 59.8574 56 59.8574 56C59.8574 56 59.8574 56 59.8574 56C59.8574 56 59.8574 56 59.8574 56C59.8574 56 59.8574 56 59.8574 56C59.8574 56 59.8574 56 59.8574 56C59.8574 56 59.8574 56 59.8574 56C59.8574 56 59.8574 56 59.8574 56C59.8574 56 59.8574 56 59.8575 56C59.8575 56 59.8575 56 59.8575 56C59.8575 56 59.8575 56 59.8575 56C59.8575 56 59.8575 56 59.8575 56C59.8575 56 59.8575 56 59.8575 56C59.8575 56 59.8575 56 59.8575 56C59.8575 56 59.8575 56 59.8575 56C59.8575 56 59.8575 56 59.8575 56C59.8575 56 59.8575 56 59.8575 56C59.8575 56 59.8575 56 59.8575 56C59.8575 56 59.8575 56 59.8575 56C59.8575 56 59.8575 56 59.8575 56C59.8576 56 59.8576 56 59.8576 56C59.8576 56 59.8576 56 59.8576 56C59.8576 56 59.8576 56 59.8576 56C59.8576 56 59.8576 56 59.8576 56C59.8576 56 59.8576 56 59.8576 56C59.8576 56 59.8576 56 59.8576 56C59.8576 56 59.8576 56 59.8576 56C59.8576 56 59.8576 56 59.8576 56C59.8576 56 59.8576 56 59.8576 56C59.8576 56 59.8576 56 59.8576 56C59.8576 56 59.8576 56 59.8576 56C59.8576 56 59.8576 56 59.8576 56C59.8577 56 59.8577 56 59.8577 56C59.8577 56 59.8577 56 59.8577 56C59.8577 56 59.8577 56 59.8577 56C59.8577 56 59.8577 56 59.8577 56C59.8577 56 59.8577 56 59.8577 56C59.8577 56 59.8577 56 59.8577 56C59.8577 56 59.8577 56 59.8577 56C59.8577 56 59.8577 56 59.8577 56C59.8577 56 59.8577 56 59.8577 56C59.8577 56 59.8577 56 59.8577 56C59.8577 56 59.8577 56 59.8577 56C59.8577 56 59.8577 56 59.8578 56C59.8578 56 59.8578 56 59.8578 56C59.8578 56 59.8578 56 59.8578 56C59.8578 56 59.8578 56 59.8578 56C59.8578 56 59.8578 56 59.8578 56C59.8578 56 59.8578 56 59.8578 56C59.8578 56 59.8578 56 59.8578 56C59.8578 56 59.8578 56 59.8578 56C59.8578 56 59.8578 56 59.8578 56C59.8578 56 59.8578 56 59.8578 56C59.8578 56 59.8578 56 59.8578 56C59.8578 56 59.8578 56 59.8578 56C59.8578 56 59.8578 56 59.8578 56C59.8579 56 59.8579 56 59.8579 56C59.8579 56 59.8579 56 59.8579 56C59.8579 56 59.8579 56 59.8579 56C59.8579 56 59.8579 56 59.8579 56C59.8579 56 59.8579 56 59.8579 56C59.8579 56 59.8579 56 59.8579 56C59.8579 56 59.8579 56 59.8579 56C59.8579 56 59.8579 56 59.8579 56C59.8579 56 59.8579 56 59.8579 56C59.8579 56 59.8579 56 59.8579 56C59.8579 56 59.8579 56 59.8579 56C59.8579 56 59.8579 56 59.8579 56C59.8579 56 59.8579 56 59.858 56C59.858 56 59.858 56 59.858 56C59.858 56 59.858 56 59.858 56C59.858 56 59.858 56 59.858 56C59.858 56 59.858 56 59.858 56C59.858 56 59.858 56 59.858 56C59.858 56 59.858 56 59.858 56C59.858 56 59.858 56 59.858 56C59.858 56 59.858 56 59.858 56C59.858 56 59.858 56 59.858 56C59.858 56 59.858 56 59.858 56C59.858 56 59.858 56 59.858 56C59.858 56 59.858 56 59.858 56C59.858 56 59.858 56 59.858 56C59.858 56 59.8581 56 59.8581 56C59.8581 56 59.8581 56 59.8581 56C59.8581 56 59.8581 56 59.8581 56C59.8581 56 59.8581 56 59.8581 56C59.8581 56 59.8581 56 59.8581 56C59.8581 56 59.8581 56 59.8581 56C59.8581 56 59.8581 56 59.8581 56C59.8581 56 59.8581 56 59.8581 56C59.8581 56 59.8581 56 59.8581 56C59.8581 56 59.8581 56 59.8581 56C59.8581 56 59.8581 56 59.8581 56C59.8581 56 59.8581 56 59.8581 56C59.8581 56 59.8581 56 59.8581 56C59.8581 56 59.8581 56 59.8581 56C59.8581 56 59.8581 56 59.8581 56C59.8582 56 59.8582 56 59.8582 56C59.8582 56 59.8582 56 59.8582 56C59.8582 56 59.8582 56 59.8582 56C59.8582 56 59.8582 56 59.8582 56C59.8582 56 59.8582 56 59.8582 56C59.8582 56 59.8582 56 59.8582 56C59.8582 56 59.8582 56 59.8582 56C59.8582 56 59.8582 56 59.8582 56C59.8582 56 59.8582 56 59.8582 56C59.8582 56 59.8582 56 59.8582 56C59.8582 56 59.8582 56 59.8582 56C59.8582 56 59.8582 56 59.8582 56C59.8582 56 59.8582 56 59.8582 56C59.8582 56 59.8582 56 59.8582 56C59.8582 56 59.8582 56 59.8582 56C59.8582 56 59.8582 56 59.8582 56C59.8582 56 59.8582 56 59.8582 56C59.8583 56 59.8583 56 59.8583 56C59.8583 56 59.8583 56 59.8583 56C59.8583 56 59.8583 56 59.8583 56C59.8583 56 59.8583 56 59.8583 56C59.8583 56 59.8583 56 59.8583 56C59.8583 56 59.8583 56 59.8583 56C59.8583 56 59.8583 56 59.8583 56C59.8583 56 59.8583 56 59.8583 56C59.8583 56 59.8583 56 59.8583 56C59.8583 56 59.8583 56 59.8583 56C59.8583 56 59.8583 56 59.8583 56C59.8583 56 59.8583 56 59.8583 56C59.8583 56 59.8583 56 59.8583 56C59.8583 56 59.8583 56 59.8583 56C59.8583 56 59.8583 56 59.8583 56C59.8583 56 59.8583 56 59.8583 56C59.8583 56 59.8583 56 59.8583 56C59.8583 56 59.8583 56 59.8583 56C59.8583 56 59.8583 56 59.8583 56C59.8583 56 59.8583 56 59.8583 56C59.8583 56 59.8583 56 59.8583 56C59.8584 56 59.8584 56 59.8584 56C59.8584 56 59.8584 56 59.8584 56C59.8584 56 59.8584 56 59.8584 56C59.8584 56 59.8584 56 59.8584 56C59.8584 56 59.8584 56 59.8584 56C59.8584 56 59.8584 56 59.8584 56C59.8584 56 59.8584 56 59.8584 56C59.8584 56 59.8584 56 59.8584 56C59.8584 56 59.8584 56 59.8584 56C59.8584 56 59.8584 56 59.8584 56C59.8584 56 59.8584 56 59.8584 56C59.8584 56 59.8584 56 59.8584 56C59.8584 56 59.8584 56 59.8584 56C59.8584 56 59.8584 56 59.8584 56C59.8584 56 59.8584 56 59.8584 56C59.8584 56 59.8584 56 59.8584 56C59.8584 56 59.8584 56 59.8584 56C59.8584 56 59.8584 56 59.8584 56C59.8584 56 59.8584 56 59.8584 56C59.8584 56 59.8584 56 59.8584 56C59.8584 56 59.8584 56 59.8584 56C59.8584 56 59.8584 56 59.8584 56C59.8584 56 59.8584 56 59.8584 56C59.8584 56 59.8584 56 59.8584 56C59.8584 56 59.8584 56 59.8584 56C59.8584 56 59.8584 56 59.8584 56C59.8584 56 59.8584 56 59.8584 56C59.8584 56 59.8584 56 59.8584 56C59.8584 56 59.8584 56 59.8584 56C59.8584 56 59.8584 56 59.8584 56C59.8584 56 59.8584 56 59.8584 56C59.8584 56 59.8584 56 59.8584 56C59.8584 56 59.8584 56 59.8584 56C59.8584 56 59.8584 56 59.8584 56C59.8584 56 59.8584 56 59.8584 56C59.8584 56 59.8584 56 59.8584 56C59.8584 56 59.8584 56 59.8584 56H59.8584C59.8584 56 59.8584 56 59.8584 56H59.8584C59.8584 56 59.8584 56 59.8584 56C59.8584 56 59.8584 56 59.8584 56C59.8584 56 59.8584 56 59.8584 56H59.8584C59.8584 56 59.8584 56 59.8584 55ZM59.8734 54.0001C58.0487 53.9729 56.186 53.1206 54.7785 51.6064L53.3136 52.968C55.0556 54.8421 57.4217 55.9638 59.8435 55.9999L59.8734 54.0001ZM54.7864 51.615C55.0543 51.9101 55.0724 52.3511 54.8281 52.6668L53.2463 51.443C52.8958 51.896 52.9227 52.5376 53.3057 52.9594L54.7864 51.615ZM54.8281 52.6668C54.704 52.8273 54.4845 52.9818 54.1896 52.9986C53.8892 53.0156 53.6416 52.882 53.4915 52.7166L54.9722 51.3722C54.7645 51.1435 54.4461 50.9808 54.0761 51.0018C53.7115 51.0225 53.4235 51.2139 53.2463 51.443L54.8281 52.6668ZM53.4995 52.7253C55.1929 54.5467 57.4925 55.6364 59.8475 55.6727L59.8783 53.6729C58.1194 53.6458 56.3229 52.8249 54.9642 51.3635L53.4995 52.7253ZM59.8629 55.6728C59.5548 55.6728 59.3201 55.5188 59.1863 55.3556C59.0541 55.1943 59 55.0081 59 54.8417H61C61 54.3892 60.6669 53.6728 59.8629 53.6728V55.6728ZM59.0014 54.7894C59.0108 54.6098 59.0796 54.435 59.2036 54.2935C59.3288 54.1507 59.5532 54 59.8584 54V56C60.6264 56 60.9756 55.3327 60.9986 54.894L59.0014 54.7894Z" fill="#FBBE18" mask="url(#path-38-inside-2_1440_49582)"/>
</g>
<path d="M51.0233 30.9226C50.6741 30.5735 50.4222 30.2819 50.8289 29.8752C51.2321 29.4721 51.5488 29.6988 51.898 30.048C52.2471 30.3971 52.4091 30.9478 52.1679 31.189C51.9232 31.4338 51.3724 31.2718 51.0233 30.9226Z" fill="#FCDABD"/>
<path d="M51.2214 33.5035C50.8039 33.2408 50.4943 33.0104 50.8003 32.5245C51.1026 32.0457 51.4626 32.1933 51.8801 32.4561C52.2976 32.7188 52.5748 33.2228 52.3948 33.5107C52.2148 33.8023 51.6389 33.7663 51.2214 33.5035Z" fill="#FCDABD"/>
<path d="M50.7031 35.4615C50.2855 35.1988 49.976 34.9684 50.2819 34.4825C50.5843 34.0037 50.9442 34.1513 51.3618 34.4141C51.7793 34.6768 52.0565 35.1808 51.8765 35.4687C51.6965 35.7603 51.1206 35.7243 50.7031 35.4615Z" fill="#FCDABD"/>
<path d="M49.3929 37.6968C49.0366 37.3405 48.7774 37.0417 49.1553 36.6638C49.5297 36.2894 49.85 36.527 50.2064 36.8833C50.5627 37.2397 50.7463 37.7868 50.5195 38.01C50.2964 38.2367 49.7492 38.0532 49.3929 37.6968Z" fill="#FCDABD"/>
</g>
</g>
<defs>
<clipPath id="clip0_1440_49582">
<rect width="72" height="72" fill="white"/>
</clipPath>
<clipPath id="clip1_1440_49582">
<rect width="54" height="54" fill="white" transform="translate(9 9)"/>
</clipPath>
<clipPath id="clip2_1440_49582">
<rect width="50.625" height="50.625" fill="white" transform="translate(10.6875 10.6875)"/>
</clipPath>
<clipPath id="clip3_1440_49582">
<rect width="38" height="24.4286" fill="white" transform="matrix(-1 0 0 1 52 23)"/>
</clipPath>
<clipPath id="clip4_1440_49582">
<rect width="38" height="4.07143" fill="white" transform="matrix(-1 0 0 1 52 47.4285)"/>
</clipPath>
<clipPath id="clip5_1440_49582">
<rect width="35.2857" height="24.4286" fill="white" transform="matrix(-1 0 0 1 52 23)"/>
</clipPath>
<clipPath id="clip6_1440_49582">
<rect width="35.2857" height="4.07143" fill="white" transform="matrix(-1 0 0 1 52 47.4285)"/>
</clipPath>
<clipPath id="clip7_1440_49582">
<rect width="29.8571" height="19" fill="white" transform="matrix(-1 0 0 1 49.2858 25.7144)"/>
</clipPath>
</defs>
</svg>
