<svg width="72" height="72" viewBox="0 0 72 72" fill="none" xmlns="http://www.w3.org/2000/svg">
<g clip-path="url(#clip0_1440_49551)">
<path fill-rule="evenodd" clip-rule="evenodd" d="M14.2599 16.3472C18.391 10.7637 24.322 7.58068 31.0467 5.83189C39.286 3.68924 48.1047 1.15265 55.3263 5.66773C64.2922 11.2734 72.9231 20.6476 71.4871 31.116C70.0861 41.3291 57.448 44.0958 49.2056 50.287C39.8624 57.3051 32.715 71.8056 21.4394 68.7091C10.1222 65.6013 8.36945 50.2572 6.77593 38.6352C5.65556 30.4641 9.35585 22.9753 14.2599 16.3472Z" fill="#D0EECC"/>
<path fill-rule="evenodd" clip-rule="evenodd" d="M45.7226 13C51.0251 13 55.8709 15.9862 58.2093 20.7067C60.5543 25.4405 59.9636 31.0835 56.6903 35.24C53.4609 39.3408 48.1801 41.285 43.0409 40.2847L42.8852 40.2535L44.1153 34.2921C47.0504 34.8978 50.076 33.8007 51.9082 31.4741C53.7291 29.1618 54.0563 26.0358 52.7549 23.4086C51.46 20.7945 48.7732 19.1207 45.8124 19.0875L45.7226 19.087V13Z" fill="#5C76B2"/>
<path fill-rule="evenodd" clip-rule="evenodd" d="M32.0498 24.9355L38.0865 25.7165C37.5771 29.654 40.1501 33.3225 44.0061 34.1911L44.1233 34.2166L42.8773 40.1746C35.9143 38.7185 31.2221 32.1969 32.0239 25.1493L32.0498 24.9355Z" fill="#F68820"/>
<path fill-rule="evenodd" clip-rule="evenodd" d="M45.6306 13V19.087C41.8055 19.087 38.5612 21.9266 38.0128 25.7499L37.9971 25.8661L31.9597 25.0905C32.8386 18.2495 38.5798 13.1038 45.4229 13.0016L45.6306 13Z" fill="#FBBE18"/>
<rect x="18" y="36" width="7" height="22" rx="1" fill="#FBBE18"/>
<rect x="20" y="36" width="5" height="22" rx="1" fill="#F68820"/>
<rect x="26" y="42" width="7" height="16" rx="1" fill="#80A0C1"/>
<rect x="28" y="42" width="5" height="16" rx="1" fill="#5C76B2"/>
<rect x="34" y="48" width="7" height="10" rx="1" fill="#DBDEE3"/>
<rect x="36" y="48" width="5" height="10" rx="1" fill="#808080"/>
<g clip-path="url(#clip1_1440_49551)">
<path d="M27.6562 12H25.125C19.5335 12 15 16.5335 15 22.125C15 27.7165 19.5335 32.25 25.125 32.25H27.6562C33.2478 32.25 37.7812 27.7165 37.7812 22.125C37.7812 16.5335 33.2478 12 27.6562 12Z" fill="#5C76B2"/>
</g>
<g clip-path="url(#clip2_1440_49551)">
<path d="M25.125 32.25C30.7169 32.25 35.25 27.7169 35.25 22.125C35.25 16.5331 30.7169 12 25.125 12C19.5331 12 15 16.5331 15 22.125C15 27.7169 19.5331 32.25 25.125 32.25Z" fill="#6FA4D8"/>
</g>
<g clip-path="url(#clip3_1440_49551)">
<path d="M25.125 30.5625C29.7849 30.5625 33.5625 26.7849 33.5625 22.125C33.5625 17.4651 29.7849 13.6875 25.125 13.6875C20.4651 13.6875 16.6875 17.4651 16.6875 22.125C16.6875 26.7849 20.4651 30.5625 25.125 30.5625Z" fill="#55525B"/>
</g>
<path d="M19.7807 24.066C19.5007 24.066 19.2227 24.026 18.9467 23.946C18.6747 23.862 18.4587 23.752 18.2987 23.616L18.6347 22.794C18.9907 23.038 19.3647 23.16 19.7567 23.16C19.9607 23.16 20.1187 23.116 20.2307 23.028C20.3427 22.94 20.3987 22.816 20.3987 22.656C20.3987 22.5 20.3447 22.376 20.2367 22.284C20.1287 22.188 19.9847 22.14 19.8047 22.14C19.5447 22.14 19.3127 22.232 19.1087 22.416H18.4187V19.77H21.1787V20.664H19.4567V21.414C19.6407 21.314 19.8527 21.264 20.0927 21.264C20.3607 21.264 20.5967 21.322 20.8007 21.438C21.0047 21.55 21.1627 21.708 21.2747 21.912C21.3907 22.116 21.4487 22.354 21.4487 22.626C21.4487 22.914 21.3807 23.168 21.2447 23.388C21.1087 23.604 20.9167 23.772 20.6687 23.892C20.4207 24.008 20.1247 24.066 19.7807 24.066ZM23.5104 24V23.292H21.7944V22.518L23.6844 19.77H24.5724V22.458H25.1244V23.292H24.5724V24H23.5104ZM23.5104 22.458V21.324L22.7484 22.458H23.5104ZM27.2101 24.192L26.5381 23.802L28.9861 19.578L29.6521 19.968L27.2101 24.192ZM26.5141 22.29C26.1541 22.29 25.8741 22.172 25.6741 21.936C25.4781 21.696 25.3801 21.38 25.3801 20.988C25.3801 20.592 25.4801 20.28 25.6801 20.052C25.8801 19.82 26.1581 19.704 26.5141 19.704C26.8661 19.704 27.1421 19.822 27.3421 20.058C27.5421 20.29 27.6421 20.6 27.6421 20.988C27.6421 21.38 27.5421 21.696 27.3421 21.936C27.1461 22.172 26.8701 22.29 26.5141 22.29ZM26.5141 21.63C26.6061 21.63 26.6761 21.582 26.7241 21.486C26.7721 21.39 26.7961 21.224 26.7961 20.988C26.7961 20.752 26.7701 20.588 26.7181 20.496C26.6701 20.404 26.6021 20.358 26.5141 20.358C26.4181 20.358 26.3461 20.404 26.2981 20.496C26.2501 20.584 26.2261 20.748 26.2261 20.988C26.2261 21.232 26.2501 21.4 26.2981 21.492C26.3461 21.584 26.4181 21.63 26.5141 21.63ZM29.6821 24.066C29.3261 24.066 29.0481 23.948 28.8481 23.712C28.6521 23.476 28.5541 23.162 28.5541 22.77C28.5541 22.374 28.6541 22.06 28.8541 21.828C29.0541 21.596 29.3301 21.48 29.6821 21.48C30.0381 21.48 30.3161 21.598 30.5161 21.834C30.7161 22.07 30.8161 22.382 30.8161 22.77C30.8161 23.162 30.7161 23.476 30.5161 23.712C30.3201 23.948 30.0421 24.066 29.6821 24.066ZM29.6821 23.412C29.7741 23.412 29.8441 23.364 29.8921 23.268C29.9441 23.172 29.9701 23.006 29.9701 22.77C29.9701 22.534 29.9441 22.37 29.8921 22.278C29.8441 22.186 29.7741 22.14 29.6821 22.14C29.5901 22.14 29.5201 22.184 29.4721 22.272C29.4241 22.36 29.4001 22.526 29.4001 22.77C29.4001 23.01 29.4241 23.178 29.4721 23.274C29.5201 23.366 29.5901 23.412 29.6821 23.412Z" fill="white"/>
</g>
<defs>
<clipPath id="clip0_1440_49551">
<rect width="72" height="72" fill="white"/>
</clipPath>
<clipPath id="clip1_1440_49551">
<rect width="22.7812" height="20.25" fill="white" transform="translate(15 12)"/>
</clipPath>
<clipPath id="clip2_1440_49551">
<rect width="20.25" height="20.25" fill="white" transform="translate(15 12)"/>
</clipPath>
<clipPath id="clip3_1440_49551">
<rect width="16.875" height="16.875" fill="white" transform="translate(16.6875 13.6875)"/>
</clipPath>
</defs>
</svg>
