<svg width="72" height="72" viewBox="0 0 72 72" fill="none" xmlns="http://www.w3.org/2000/svg">
<g clip-path="url(#clip0_1440_49448)">
<path fill-rule="evenodd" clip-rule="evenodd" d="M14.2599 16.3472C18.391 10.7637 24.322 7.58068 31.0467 5.83189C39.286 3.68924 48.1047 1.15265 55.3263 5.66773C64.2922 11.2734 72.9231 20.6476 71.4871 31.116C70.0861 41.3291 57.448 44.0958 49.2056 50.287C39.8624 57.3051 32.715 71.8056 21.4394 68.7091C10.1222 65.6013 8.36945 50.2572 6.77593 38.6352C5.65556 30.4641 9.35585 22.9753 14.2599 16.3472Z" fill="#D0EECC"/>
<g clip-path="url(#clip1_1440_49448)">
<g clip-path="url(#clip2_1440_49448)">
<path d="M29.833 46.9688C27.9692 46.9688 26.458 45.4576 26.458 43.5938V40.2188C26.458 38.3549 27.9692 36.8438 29.833 36.8438V46.9688Z" fill="#6FA4D8"/>
</g>
<g clip-path="url(#clip3_1440_49448)">
<path d="M43.333 46.9688C45.1968 46.9688 46.708 45.4576 46.708 43.5938V40.2188C46.708 38.3549 45.1968 36.8438 43.333 36.8438V46.9688Z" fill="#5C76B2"/>
</g>
<g clip-path="url(#clip4_1440_49448)">
<path d="M43.333 21.6562H29.833C27.9692 21.6562 26.458 23.1674 26.458 25.0312V33.4688C26.458 35.3326 27.9692 36.8438 29.833 36.8438V46.9688C29.833 49.7649 32.0993 52.0312 34.8955 52.0312H38.2705C41.0667 52.0312 43.333 49.7649 43.333 46.9688V36.8438C45.1969 36.8438 46.708 35.3326 46.708 33.4688V25.0312C46.708 23.1674 45.1969 21.6562 43.333 21.6562Z" fill="#F68820"/>
</g>
<g clip-path="url(#clip5_1440_49448)">
<path d="M33.208 21.6562H24.7705C23.8382 21.6562 23.083 20.9011 23.083 19.9688V19.125C23.083 18.6593 22.705 18.2812 22.2393 18.2812C21.7735 18.2812 21.3955 18.6593 21.3955 19.125V21.6562C21.3955 23.5201 22.9067 25.0312 24.7705 25.0312H31.5205C34.3167 25.0312 36.583 27.2976 36.583 30.0938V25.0312C36.583 23.1674 35.0719 21.6562 33.208 21.6562Z" fill="#6FA4D8"/>
</g>
<g clip-path="url(#clip6_1440_49448)">
<path d="M39.958 21.6562H48.3955C49.3278 21.6562 50.083 20.9011 50.083 19.9688V19.125C50.083 18.6593 50.461 18.2812 50.9268 18.2812C51.3925 18.2812 51.7705 18.6593 51.7705 19.125V21.6562C51.7705 23.5201 50.2593 25.0312 48.3955 25.0312H41.6455C38.8493 25.0312 36.583 27.2976 36.583 30.0938V25.0312C36.583 23.1674 38.0942 21.6562 39.958 21.6562Z" fill="#5C76B2"/>
</g>
<g clip-path="url(#clip7_1440_49448)">
<g clip-path="url(#clip8_1440_49448)">
<path d="M50.083 58.7812V62.1563H21.3955V58.7812H50.083Z" fill="#F68820"/>
</g>
<g clip-path="url(#clip9_1440_49448)">
<path d="M50.083 52.0312V55.4063H21.3955V52.0312H50.083Z" fill="#FBD301"/>
</g>
<g clip-path="url(#clip10_1440_49448)">
<path d="M21.3955 55.4062H50.083V58.7812H21.3955V55.4062Z" fill="#FBBE18"/>
</g>
<g clip-path="url(#clip11_1440_49448)">
<path d="M21.3952 52.0312L12.0245 56.7166C11.7132 56.8718 11.7132 57.3157 12.0245 57.4709L21.3952 62.1562V52.0312Z" fill="#DB9E68"/>
</g>
<g clip-path="url(#clip12_1440_49448)">
<path d="M21.3956 52.0312L12.0249 56.7166C11.8696 56.7942 11.792 56.9436 11.792 57.0937H21.3956V52.0312Z" fill="#EEC78E"/>
</g>
<g clip-path="url(#clip13_1440_49448)">
<path d="M12.9577 56.25L12.0245 56.7166C11.7132 56.8718 11.7132 57.3157 12.0245 57.4709L12.9577 57.9375V56.25Z" fill="#353744"/>
</g>
<g clip-path="url(#clip14_1440_49448)">
<path d="M53.458 52.0312V62.1562H50.083V52.0312H53.458Z" fill="#B3B4B6"/>
</g>
<g clip-path="url(#clip15_1440_49448)">
<path d="M53.458 52.0312V57.0937H50.083V52.0312H53.458Z" fill="#DBDEE3"/>
</g>
<g clip-path="url(#clip16_1440_49448)">
<path d="M60.208 59.625V54.5625C60.208 53.1644 59.0749 52.0312 57.6768 52.0312H53.458V62.1562H56.833H57.6768C59.0749 62.1562 60.208 61.0231 60.208 59.625Z" fill="#353744"/>
</g>
<g clip-path="url(#clip17_1440_49448)">
<path d="M60.208 57.0937V54.5625C60.208 53.1644 59.0749 52.0312 57.6768 52.0312H53.458V57.0937H60.208Z" fill="#55525B"/>
</g>
</g>
<g clip-path="url(#clip18_1440_49448)">
<path d="M55.1455 14.9062H18.0205C17.0882 14.9062 16.333 14.1511 16.333 13.2188C16.333 12.2864 17.0882 11.5312 18.0205 11.5312H55.1455C56.0779 11.5312 56.833 12.2864 56.833 13.2188C56.833 14.1511 56.0779 14.9062 55.1455 14.9062Z" fill="#353744"/>
</g>
<g clip-path="url(#clip19_1440_49448)">
<path d="M38.2705 13.2188C38.2705 12.2864 37.5154 11.5312 36.583 11.5312H18.0205C17.0882 11.5312 16.333 12.2864 16.333 13.2188C16.333 14.1502 17.0882 14.9062 18.0205 14.9062H36.583C37.5154 14.9062 38.2705 14.1502 38.2705 13.2188Z" fill="#55525B"/>
</g>
<g clip-path="url(#clip20_1440_49448)">
<path d="M47.1299 21.6562H26.0361C25.5704 21.6562 25.1924 21.2783 25.1924 20.8125V14.9062H47.9736V20.8125C47.9736 21.2783 47.5956 21.6562 47.1299 21.6562Z" fill="#353744"/>
</g>
<g clip-path="url(#clip21_1440_49448)">
<path d="M36.583 21.6562H26.0361C25.5704 21.6562 25.1924 21.2782 25.1924 20.8125V18.2812H34.8955C35.8279 18.2812 36.583 19.0364 36.583 19.9688V21.6562Z" fill="#55525B"/>
</g>
<g clip-path="url(#clip22_1440_49448)">
<path d="M51.7705 11.5312H53.458V21.6562H51.7705V11.5312Z" fill="#F68820"/>
</g>
<g clip-path="url(#clip23_1440_49448)">
<path d="M34.8955 11.5312H53.458C53.458 10.5989 52.7029 9.84375 51.7705 9.84375H36.583C35.6507 9.84375 34.8955 10.5989 34.8955 11.5312Z" fill="#FBBE18"/>
</g>
<g clip-path="url(#clip24_1440_49448)">
<path d="M52.6143 23.3438C53.5462 23.3438 54.3018 22.5882 54.3018 21.6562C54.3018 20.7243 53.5462 19.9688 52.6143 19.9688C51.6823 19.9688 50.9268 20.7243 50.9268 21.6562C50.9268 22.5882 51.6823 23.3438 52.6143 23.3438Z" fill="#FBBE18"/>
</g>
<g clip-path="url(#clip25_1440_49448)">
<path d="M50.9268 21.6562H54.3018V23.3438H50.9268V21.6562Z" fill="#B3B4B6"/>
</g>
<g clip-path="url(#clip26_1440_49448)">
<path d="M50.9268 21.6562H52.6143V23.3438H50.9268V21.6562Z" fill="#DBDEE3"/>
</g>
<g clip-path="url(#clip27_1440_49448)">
<path d="M52.6143 30.0938H50.9268C50.461 30.0938 50.083 29.7158 50.083 29.25V24.1875C50.083 23.7218 50.461 23.3438 50.9268 23.3438H52.6143V30.0938Z" fill="#FBBE18"/>
</g>
<g clip-path="url(#clip28_1440_49448)">
<path d="M52.6143 30.0938H54.3018C54.7675 30.0938 55.1455 29.7158 55.1455 29.25V24.1875C55.1455 23.7218 54.7675 23.3438 54.3018 23.3438H52.6143V30.0938Z" fill="#F68820"/>
</g>
<g clip-path="url(#clip29_1440_49448)">
<path d="M51.7705 30.0938V24.6094C51.7705 24.3765 51.5815 24.1875 51.3486 24.1875C51.1158 24.1875 50.9268 24.3765 50.9268 24.6094V30.0938H51.7705Z" fill="#F68820"/>
</g>
<g clip-path="url(#clip30_1440_49448)">
<path d="M54.3018 30.0938V27.1406C54.3018 26.9078 54.1128 26.7188 53.8799 26.7188C53.647 26.7188 53.458 26.9078 53.458 27.1406V30.0938H54.3018Z" fill="#FBBE18"/>
</g>
<g clip-path="url(#clip31_1440_49448)">
<path d="M31.5205 35.1562C34.3165 35.1562 36.583 32.8897 36.583 30.0938C36.583 27.2978 34.3165 25.0312 31.5205 25.0312C28.7246 25.0312 26.458 27.2978 26.458 30.0938C26.458 32.8897 28.7246 35.1562 31.5205 35.1562Z" fill="#DBDEE3"/>
</g>
<g clip-path="url(#clip32_1440_49448)">
<path d="M31.5205 35.1562C34.3165 35.1562 36.583 32.8897 36.583 30.0938C36.583 27.2978 34.3165 25.0312 31.5205 25.0312C28.7246 25.0312 26.458 27.2978 26.458 30.0938C26.458 32.8897 28.7246 35.1562 31.5205 35.1562Z" fill="#DBDEE3"/>
</g>
<g clip-path="url(#clip33_1440_49448)">
<path d="M31.5205 31.7812C32.4525 31.7812 33.208 31.0257 33.208 30.0938C33.208 29.1618 32.4525 28.4062 31.5205 28.4062C30.5885 28.4062 29.833 29.1618 29.833 30.0938C29.833 31.0257 30.5885 31.7812 31.5205 31.7812Z" fill="#55525B"/>
</g>
<g clip-path="url(#clip34_1440_49448)">
<path d="M41.6455 35.1562C44.4414 35.1562 46.708 32.8897 46.708 30.0938C46.708 27.2978 44.4414 25.0312 41.6455 25.0312C38.8496 25.0312 36.583 27.2978 36.583 30.0938C36.583 32.8897 38.8496 35.1562 41.6455 35.1562Z" fill="#DBDEE3"/>
</g>
<g clip-path="url(#clip35_1440_49448)">
<path d="M41.6455 31.7812C42.5775 31.7812 43.333 31.0257 43.333 30.0938C43.333 29.1618 42.5775 28.4062 41.6455 28.4062C40.7135 28.4062 39.958 29.1618 39.958 30.0938C39.958 31.0257 40.7135 31.7812 41.6455 31.7812Z" fill="#55525B"/>
</g>
<g clip-path="url(#clip36_1440_49448)">
<path d="M36.5825 30.0938C37.6287 30.0938 38.3746 31.1088 38.0624 32.1069L37.3874 34.2661C37.141 35.0558 36.023 35.0558 35.7767 34.2661L35.1017 32.1069C34.7903 31.1088 35.5362 30.0938 36.5825 30.0938Z" fill="#55525B"/>
</g>
<g clip-path="url(#clip37_1440_49448)">
<path d="M34.0518 38.5312C33.1194 38.5312 32.3643 37.7761 32.3643 36.8438H35.7393C35.7393 37.7761 34.9841 38.5312 34.0518 38.5312Z" fill="#FBBE18"/>
</g>
<g clip-path="url(#clip38_1440_49448)">
<path d="M39.1143 38.5312C38.1819 38.5312 37.4268 37.7761 37.4268 36.8438H40.8018C40.8018 37.7761 40.0466 38.5312 39.1143 38.5312Z" fill="#FBBE18"/>
</g>
<g clip-path="url(#clip39_1440_49448)">
<path d="M34.0518 45.2812C33.1194 45.2812 32.3643 44.5261 32.3643 43.5938H35.7393C35.7393 44.5261 34.9841 45.2812 34.0518 45.2812Z" fill="#FBBE18"/>
</g>
<g clip-path="url(#clip40_1440_49448)">
<path d="M39.1143 45.2812C38.1819 45.2812 37.4268 44.5261 37.4268 43.5938H40.8018C40.8018 44.5261 40.0466 45.2812 39.1143 45.2812Z" fill="#FBBE18"/>
</g>
<g clip-path="url(#clip41_1440_49448)">
<path d="M36.583 41.9062C35.6507 41.9062 34.8955 41.1511 34.8955 40.2188H38.2705C38.2705 41.1511 37.5154 41.9062 36.583 41.9062Z" fill="#FBBE18"/>
</g>
<g clip-path="url(#clip42_1440_49448)">
<path d="M36.583 48.6562C35.6507 48.6562 34.8955 47.9011 34.8955 46.9688H38.2705C38.2705 47.9011 37.5154 48.6562 36.583 48.6562Z" fill="#FBBE18"/>
</g>
<g clip-path="url(#clip43_1440_49448)">
<path d="M31.0986 53.7188C31.5644 53.7188 31.9424 53.3407 31.9424 52.875V51.1875C31.9424 50.7218 31.5644 50.3438 31.0986 50.3438C30.6329 50.3438 30.2549 50.7218 30.2549 51.1875V52.875C30.2549 53.3407 30.6329 53.7188 31.0986 53.7188Z" fill="#6FA4D8"/>
</g>
<g clip-path="url(#clip44_1440_49448)">
<path d="M32.7861 53.7188C33.2519 53.7188 33.6299 53.3407 33.6299 52.875V51.1875C33.6299 50.7218 33.2519 50.3438 32.7861 50.3438C32.3204 50.3438 31.9424 50.7218 31.9424 51.1875V52.875C31.9424 53.3407 32.3204 53.7188 32.7861 53.7188Z" fill="#6FA4D8"/>
</g>
<g clip-path="url(#clip45_1440_49448)">
<path d="M34.4736 53.7188C34.9394 53.7188 35.3174 53.3407 35.3174 52.875V51.1875C35.3174 50.7218 34.9394 50.3438 34.4736 50.3438C34.0079 50.3438 33.6299 50.7218 33.6299 51.1875V52.875C33.6299 53.3407 34.0079 53.7188 34.4736 53.7188Z" fill="#6FA4D8"/>
</g>
<g clip-path="url(#clip46_1440_49448)">
<path d="M38.6924 53.7188C39.1581 53.7188 39.5361 53.3407 39.5361 52.875V51.1875C39.5361 50.7218 39.1581 50.3438 38.6924 50.3438C38.2266 50.3438 37.8486 50.7218 37.8486 51.1875V52.875C37.8486 53.3407 38.2266 53.7188 38.6924 53.7188Z" fill="#6FA4D8"/>
</g>
<g clip-path="url(#clip47_1440_49448)">
<path d="M40.3799 53.7188C40.8456 53.7188 41.2236 53.3407 41.2236 52.875V51.1875C41.2236 50.7218 40.8456 50.3438 40.3799 50.3438C39.9141 50.3438 39.5361 50.7218 39.5361 51.1875V52.875C39.5361 53.3407 39.9141 53.7188 40.3799 53.7188Z" fill="#6FA4D8"/>
</g>
<g clip-path="url(#clip48_1440_49448)">
<path d="M42.0674 53.7188C42.5331 53.7188 42.9111 53.3407 42.9111 52.875V51.1875C42.9111 50.7218 42.5331 50.3438 42.0674 50.3438C41.6016 50.3438 41.2236 50.7218 41.2236 51.1875V52.875C41.2236 53.3407 41.6016 53.7188 42.0674 53.7188Z" fill="#6FA4D8"/>
</g>
</g>
</g>
<defs>
<clipPath id="clip0_1440_49448">
<rect width="72" height="72" fill="white"/>
</clipPath>
<clipPath id="clip1_1440_49448">
<rect width="48.4167" height="52.3125" fill="white" transform="translate(11.791 9.84375)"/>
</clipPath>
<clipPath id="clip2_1440_49448">
<rect width="3.375" height="10.125" fill="white" transform="translate(26.458 36.8438)"/>
</clipPath>
<clipPath id="clip3_1440_49448">
<rect width="3.375" height="10.125" fill="white" transform="translate(43.333 36.8438)"/>
</clipPath>
<clipPath id="clip4_1440_49448">
<rect width="20.25" height="30.375" fill="white" transform="translate(26.458 21.6562)"/>
</clipPath>
<clipPath id="clip5_1440_49448">
<rect width="15.1875" height="11.8125" fill="white" transform="translate(21.3955 18.2812)"/>
</clipPath>
<clipPath id="clip6_1440_49448">
<rect width="15.1875" height="11.8125" fill="white" transform="translate(36.583 18.2812)"/>
</clipPath>
<clipPath id="clip7_1440_49448">
<rect width="48.4167" height="10.125" fill="white" transform="translate(11.791 52.0312)"/>
</clipPath>
<clipPath id="clip8_1440_49448">
<rect width="28.6875" height="3.37501" fill="white" transform="translate(21.3955 58.7812)"/>
</clipPath>
<clipPath id="clip9_1440_49448">
<rect width="28.6875" height="3.37501" fill="white" transform="translate(21.3955 52.0312)"/>
</clipPath>
<clipPath id="clip10_1440_49448">
<rect width="28.6875" height="3.375" fill="white" transform="translate(21.3955 55.4062)"/>
</clipPath>
<clipPath id="clip11_1440_49448">
<rect width="9.60419" height="10.125" fill="white" transform="translate(11.791 52.0312)"/>
</clipPath>
<clipPath id="clip12_1440_49448">
<rect width="9.60356" height="5.0625" fill="white" transform="translate(11.792 52.0312)"/>
</clipPath>
<clipPath id="clip13_1440_49448">
<rect width="1.16669" height="1.6875" fill="white" transform="translate(11.791 56.25)"/>
</clipPath>
<clipPath id="clip14_1440_49448">
<rect width="3.375" height="10.125" fill="white" transform="translate(50.083 52.0312)"/>
</clipPath>
<clipPath id="clip15_1440_49448">
<rect width="3.375" height="5.0625" fill="white" transform="translate(50.083 52.0312)"/>
</clipPath>
<clipPath id="clip16_1440_49448">
<rect width="6.75" height="10.125" fill="white" transform="translate(53.458 52.0312)"/>
</clipPath>
<clipPath id="clip17_1440_49448">
<rect width="6.75" height="5.0625" fill="white" transform="translate(53.458 52.0312)"/>
</clipPath>
<clipPath id="clip18_1440_49448">
<rect width="40.5" height="3.375" fill="white" transform="translate(16.333 11.5312)"/>
</clipPath>
<clipPath id="clip19_1440_49448">
<rect width="21.9375" height="3.375" fill="white" transform="translate(16.333 11.5312)"/>
</clipPath>
<clipPath id="clip20_1440_49448">
<rect width="22.7813" height="6.75" fill="white" transform="translate(25.1924 14.9062)"/>
</clipPath>
<clipPath id="clip21_1440_49448">
<rect width="11.3906" height="3.375" fill="white" transform="translate(25.1924 18.2812)"/>
</clipPath>
<clipPath id="clip22_1440_49448">
<rect width="1.6875" height="10.125" fill="white" transform="translate(51.7705 11.5312)"/>
</clipPath>
<clipPath id="clip23_1440_49448">
<rect width="18.5625" height="1.6875" fill="white" transform="translate(34.8955 9.84375)"/>
</clipPath>
<clipPath id="clip24_1440_49448">
<rect width="3.375" height="3.375" fill="white" transform="translate(50.9268 19.9688)"/>
</clipPath>
<clipPath id="clip25_1440_49448">
<rect width="3.375" height="1.6875" fill="white" transform="translate(50.9268 21.6562)"/>
</clipPath>
<clipPath id="clip26_1440_49448">
<rect width="1.6875" height="1.6875" fill="white" transform="translate(50.9268 21.6562)"/>
</clipPath>
<clipPath id="clip27_1440_49448">
<rect width="2.53125" height="6.75" fill="white" transform="translate(50.083 23.3438)"/>
</clipPath>
<clipPath id="clip28_1440_49448">
<rect width="2.53125" height="6.75" fill="white" transform="translate(52.6143 23.3438)"/>
</clipPath>
<clipPath id="clip29_1440_49448">
<rect width="0.84375" height="5.90625" fill="white" transform="translate(50.9268 24.1875)"/>
</clipPath>
<clipPath id="clip30_1440_49448">
<rect width="0.843742" height="3.375" fill="white" transform="translate(53.458 26.7188)"/>
</clipPath>
<clipPath id="clip31_1440_49448">
<rect width="10.125" height="10.125" fill="white" transform="translate(26.458 25.0312)"/>
</clipPath>
<clipPath id="clip32_1440_49448">
<rect width="10.125" height="10.125" fill="white" transform="translate(26.458 25.0312)"/>
</clipPath>
<clipPath id="clip33_1440_49448">
<rect width="3.375" height="3.375" fill="white" transform="translate(29.833 28.4062)"/>
</clipPath>
<clipPath id="clip34_1440_49448">
<rect width="10.125" height="10.125" fill="white" transform="translate(36.583 25.0312)"/>
</clipPath>
<clipPath id="clip35_1440_49448">
<rect width="3.375" height="3.375" fill="white" transform="translate(39.958 28.4062)"/>
</clipPath>
<clipPath id="clip36_1440_49448">
<rect width="3.10385" height="4.76466" fill="white" transform="translate(35.0303 30.0938)"/>
</clipPath>
<clipPath id="clip37_1440_49448">
<rect width="3.375" height="1.6875" fill="white" transform="translate(32.3643 36.8438)"/>
</clipPath>
<clipPath id="clip38_1440_49448">
<rect width="3.375" height="1.6875" fill="white" transform="translate(37.4268 36.8438)"/>
</clipPath>
<clipPath id="clip39_1440_49448">
<rect width="3.375" height="1.6875" fill="white" transform="translate(32.3643 43.5938)"/>
</clipPath>
<clipPath id="clip40_1440_49448">
<rect width="3.375" height="1.6875" fill="white" transform="translate(37.4268 43.5938)"/>
</clipPath>
<clipPath id="clip41_1440_49448">
<rect width="3.37501" height="1.6875" fill="white" transform="translate(34.8955 40.2188)"/>
</clipPath>
<clipPath id="clip42_1440_49448">
<rect width="3.37501" height="1.6875" fill="white" transform="translate(34.8955 46.9688)"/>
</clipPath>
<clipPath id="clip43_1440_49448">
<rect width="1.6875" height="3.375" fill="white" transform="translate(30.2549 50.3438)"/>
</clipPath>
<clipPath id="clip44_1440_49448">
<rect width="1.6875" height="3.375" fill="white" transform="translate(31.9424 50.3438)"/>
</clipPath>
<clipPath id="clip45_1440_49448">
<rect width="1.6875" height="3.375" fill="white" transform="translate(33.6299 50.3438)"/>
</clipPath>
<clipPath id="clip46_1440_49448">
<rect width="1.6875" height="3.375" fill="white" transform="translate(37.8486 50.3438)"/>
</clipPath>
<clipPath id="clip47_1440_49448">
<rect width="1.6875" height="3.375" fill="white" transform="translate(39.5361 50.3438)"/>
</clipPath>
<clipPath id="clip48_1440_49448">
<rect width="1.6875" height="3.375" fill="white" transform="translate(41.2236 50.3438)"/>
</clipPath>
</defs>
</svg>
